<mxfile host="65bd71144e">
    <diagram id="tRPV_GggZQzMLzGLQUaT" name="Page-1">
        <mxGraphModel dx="1812" dy="1064" grid="0" gridSize="10" guides="1" tooltips="1" connect="1" arrows="1" fold="1" page="0" pageScale="1" pageWidth="827" pageHeight="1169" math="0" shadow="0">
            <root>
                <mxCell id="0"/>
                <object label="Sentry &#10;" id="1">
                    <mxCell style="" parent="0"/>
                </object>
                <mxCell id="2" value="&lt;font style=&quot;font-size: 41px;&quot;&gt;Sentry&lt;/font&gt;" style="ellipse;whiteSpace=wrap;html=1;shadow=0;fontFamily=Helvetica;fontSize=26;fontColor=#000000;align=center;strokeWidth=3;fillColor=#1699D3;strokeColor=#C3ADF0;hachureGap=4;fontSource=https%3A%2F%2Ffonts.googleapis.com%2Fcss%3Ffamily%3DArchitects%2BDaughter;fontStyle=1" vertex="1" parent="1">
                    <mxGeometry x="497.5" y="231" width="172.5" height="169" as="geometry"/>
                </mxCell>
                <mxCell id="3" value="Insect" style="ellipse;whiteSpace=wrap;html=1;shadow=0;fontFamily=Helvetica;fontSize=26;fontColor=#000000;align=center;strokeWidth=3;fillColor=#F08705;strokeColor=#C3ADF0;gradientColor=none;hachureGap=4;fontSource=https%3A%2F%2Ffonts.googleapis.com%2Fcss%3Ffamily%3DArchitects%2BDaughter;fontStyle=1" vertex="1" parent="1">
                    <mxGeometry x="1086.5" y="180" width="120" height="120" as="geometry"/>
                </mxCell>
                <mxCell id="4" value="Bird" style="ellipse;whiteSpace=wrap;html=1;shadow=0;fontFamily=Helvetica;fontSize=26;fontColor=#000000;align=center;strokeWidth=3;fillColor=#E85642;strokeColor=#C3ADF0;hachureGap=4;fontSource=https%3A%2F%2Ffonts.googleapis.com%2Fcss%3Ffamily%3DArchitects%2BDaughter;fontStyle=1" vertex="1" parent="1">
                    <mxGeometry x="1684" y="295" width="120" height="120" as="geometry"/>
                </mxCell>
                <mxCell id="5" value="Fish" style="ellipse;whiteSpace=wrap;html=1;shadow=0;fontFamily=Helvetica;fontSize=26;fontColor=#000000;align=center;strokeWidth=3;fillColor=#1699D3;strokeColor=#C3ADF0;hachureGap=4;fontSource=https%3A%2F%2Ffonts.googleapis.com%2Fcss%3Ffamily%3DArchitects%2BDaughter;fontStyle=1" vertex="1" parent="1">
                    <mxGeometry x="1919" y="745" width="120" height="120" as="geometry"/>
                </mxCell>
                <mxCell id="6" value="Bacteria" style="ellipse;whiteSpace=wrap;html=1;shadow=0;fontFamily=Helvetica;fontSize=26;fontColor=#000000;align=center;strokeWidth=3;fillColor=#736ca8;strokeColor=#C3ADF0;hachureGap=4;fontSource=https%3A%2F%2Ffonts.googleapis.com%2Fcss%3Ffamily%3DArchitects%2BDaughter;fontStyle=1" vertex="1" parent="1">
                    <mxGeometry x="1694" y="1110" width="120" height="120" as="geometry"/>
                </mxCell>
                <mxCell id="7" value="Fungi" style="ellipse;whiteSpace=wrap;html=1;shadow=0;fontFamily=Helvetica;fontSize=26;fontColor=#000000;align=center;strokeWidth=3;fillColor=#F08705;strokeColor=#C3ADF0;hachureGap=4;fontSource=https%3A%2F%2Ffonts.googleapis.com%2Fcss%3Ffamily%3DArchitects%2BDaughter;fontStyle=1" vertex="1" parent="1">
                    <mxGeometry x="1146.5" y="1247.5" width="120" height="120" as="geometry"/>
                </mxCell>
                <mxCell id="8" value="Flower" style="ellipse;whiteSpace=wrap;html=1;shadow=0;fontFamily=Helvetica;fontSize=26;fontColor=#000000;align=center;strokeWidth=3;fillColor=#E85642;strokeColor=#C3ADF0;hachureGap=4;fontSource=https%3A%2F%2Ffonts.googleapis.com%2Fcss%3Ffamily%3DArchitects%2BDaughter;fontStyle=1" vertex="1" parent="1">
                    <mxGeometry x="541.5" y="1110" width="120" height="120" as="geometry"/>
                </mxCell>
                <mxCell id="9" value="Ant" style="rounded=1;fillColor=#f5af58;strokeColor=#C3ADF0;strokeWidth=3;shadow=0;html=1;fontColor=#000000;hachureGap=4;fontFamily=Architects Daughter;fontSource=https%3A%2F%2Ffonts.googleapis.com%2Fcss%3Ffamily%3DArchitects%2BDaughter;fontSize=26;fontStyle=1" vertex="1" parent="1">
                    <mxGeometry x="956.5" y="350" width="120" height="40" as="geometry"/>
                </mxCell>
                <mxCell id="10" value="Dolphin" style="rounded=1;fillColor=#64BBE2;strokeColor=#C3ADF0;strokeWidth=3;shadow=0;html=1;fontColor=#000000;hachureGap=4;fontFamily=Architects Daughter;fontSource=https%3A%2F%2Ffonts.googleapis.com%2Fcss%3Ffamily%3DArchitects%2BDaughter;fontSize=26;fontStyle=1" vertex="1" parent="1">
                    <mxGeometry x="331.5" y="355" width="130" height="40" as="geometry"/>
                </mxCell>
                <mxCell id="11" style="endArrow=none;strokeWidth=6;strokeColor=#C3ADF0;html=1;hachureGap=4;fontFamily=Architects Daughter;fontSource=https%3A%2F%2Ffonts.googleapis.com%2Fcss%3Ffamily%3DArchitects%2BDaughter;fontSize=26;shadow=0;fontColor=#000000;fontStyle=1" edge="1" parent="1" source="167" target="2">
                    <mxGeometry relative="1" as="geometry"/>
                </mxCell>
                <mxCell id="12" style="endArrow=none;strokeWidth=6;strokeColor=#C3ADF0;html=1;hachureGap=4;fontFamily=Architects Daughter;fontSource=https%3A%2F%2Ffonts.googleapis.com%2Fcss%3Ffamily%3DArchitects%2BDaughter;fontSize=26;shadow=0;fontColor=#000000;fontStyle=1" edge="1" parent="1" source="167" target="3">
                    <mxGeometry relative="1" as="geometry"/>
                </mxCell>
                <mxCell id="13" style="endArrow=none;strokeWidth=6;strokeColor=#C3ADF0;html=1;hachureGap=4;fontFamily=Architects Daughter;fontSource=https%3A%2F%2Ffonts.googleapis.com%2Fcss%3Ffamily%3DArchitects%2BDaughter;fontSize=26;shadow=0;fontColor=#000000;fontStyle=1" edge="1" parent="1" source="167" target="4">
                    <mxGeometry relative="1" as="geometry"/>
                </mxCell>
                <mxCell id="14" style="endArrow=none;strokeWidth=6;strokeColor=#C3ADF0;html=1;hachureGap=4;fontFamily=Architects Daughter;fontSource=https%3A%2F%2Ffonts.googleapis.com%2Fcss%3Ffamily%3DArchitects%2BDaughter;fontSize=26;shadow=0;fontColor=#000000;fontStyle=1" edge="1" parent="1" source="167" target="5">
                    <mxGeometry relative="1" as="geometry"/>
                </mxCell>
                <mxCell id="15" style="endArrow=none;strokeWidth=6;strokeColor=#C3ADF0;html=1;hachureGap=4;fontFamily=Architects Daughter;fontSource=https%3A%2F%2Ffonts.googleapis.com%2Fcss%3Ffamily%3DArchitects%2BDaughter;fontSize=26;shadow=0;fontColor=#000000;fontStyle=1" edge="1" parent="1" source="167" target="168">
                    <mxGeometry relative="1" as="geometry"/>
                </mxCell>
                <mxCell id="16" style="endArrow=none;strokeWidth=6;strokeColor=#C3ADF0;html=1;hachureGap=4;fontFamily=Architects Daughter;fontSource=https%3A%2F%2Ffonts.googleapis.com%2Fcss%3Ffamily%3DArchitects%2BDaughter;fontSize=26;shadow=0;fontColor=#000000;fontStyle=1" edge="1" parent="1" source="167" target="6">
                    <mxGeometry relative="1" as="geometry"/>
                </mxCell>
                <mxCell id="17" value="" style="edgeStyle=none;endArrow=none;strokeWidth=6;strokeColor=#C3ADF0;html=1;hachureGap=4;fontFamily=Architects Daughter;fontSource=https%3A%2F%2Ffonts.googleapis.com%2Fcss%3Ffamily%3DArchitects%2BDaughter;fontSize=26;shadow=0;fontColor=#000000;fontStyle=1" edge="1" parent="1" source="167" target="7">
                    <mxGeometry x="164" y="165" width="100" height="100" as="geometry">
                        <mxPoint x="164" y="265" as="sourcePoint"/>
                        <mxPoint x="264" y="165" as="targetPoint"/>
                    </mxGeometry>
                </mxCell>
                <mxCell id="18" value="" style="edgeStyle=none;endArrow=none;strokeWidth=6;strokeColor=#C3ADF0;html=1;hachureGap=4;fontFamily=Architects Daughter;fontSource=https%3A%2F%2Ffonts.googleapis.com%2Fcss%3Ffamily%3DArchitects%2BDaughter;fontSize=26;shadow=0;fontColor=#000000;fontStyle=1" edge="1" parent="1" source="167" target="8">
                    <mxGeometry x="164" y="165" width="100" height="100" as="geometry">
                        <mxPoint x="164" y="265" as="sourcePoint"/>
                        <mxPoint x="264" y="165" as="targetPoint"/>
                    </mxGeometry>
                </mxCell>
                <mxCell id="19" value="Lion" style="rounded=1;fillColor=#64BBE2;strokeColor=#C3ADF0;strokeWidth=3;shadow=0;html=1;fontColor=#000000;hachureGap=4;fontFamily=Architects Daughter;fontSource=https%3A%2F%2Ffonts.googleapis.com%2Fcss%3Ffamily%3DArchitects%2BDaughter;fontSize=26;fontStyle=1" vertex="1" parent="1">
                    <mxGeometry x="401.5" y="405" width="130" height="40" as="geometry"/>
                </mxCell>
                <mxCell id="20" value="Elephant" style="rounded=1;fillColor=#64BBE2;strokeColor=#C3ADF0;strokeWidth=3;shadow=0;html=1;fontColor=#000000;hachureGap=4;fontFamily=Architects Daughter;fontSource=https%3A%2F%2Ffonts.googleapis.com%2Fcss%3Ffamily%3DArchitects%2BDaughter;fontSize=26;fontStyle=1" vertex="1" parent="1">
                    <mxGeometry x="301.5" y="285" width="130" height="40" as="geometry"/>
                </mxCell>
                <mxCell id="21" value="Cat" style="rounded=1;fillColor=#64BBE2;strokeColor=#C3ADF0;strokeWidth=3;shadow=0;html=1;fontColor=#000000;hachureGap=4;fontFamily=Architects Daughter;fontSource=https%3A%2F%2Ffonts.googleapis.com%2Fcss%3Ffamily%3DArchitects%2BDaughter;fontSize=26;fontStyle=1" vertex="1" parent="1">
                    <mxGeometry x="301.5" y="210" width="130" height="40" as="geometry"/>
                </mxCell>
                <mxCell id="22" value="Giraffe" style="rounded=1;fillColor=#64BBE2;strokeColor=#C3ADF0;strokeWidth=3;shadow=0;html=1;fontColor=#000000;hachureGap=4;fontFamily=Architects Daughter;fontSource=https%3A%2F%2Ffonts.googleapis.com%2Fcss%3Ffamily%3DArchitects%2BDaughter;fontSize=26;fontStyle=1" vertex="1" parent="1">
                    <mxGeometry x="341.5" y="145" width="130" height="40" as="geometry"/>
                </mxCell>
                <mxCell id="23" value="Dog" style="rounded=1;fillColor=#64BBE2;strokeColor=#C3ADF0;strokeWidth=3;shadow=0;html=1;fontColor=#000000;hachureGap=4;fontFamily=Architects Daughter;fontSource=https%3A%2F%2Ffonts.googleapis.com%2Fcss%3Ffamily%3DArchitects%2BDaughter;fontSize=26;fontStyle=1" vertex="1" parent="1">
                    <mxGeometry x="391.5" y="85" width="130" height="40" as="geometry"/>
                </mxCell>
                <mxCell id="24" value="Debug" style="rounded=1;fillColor=#64BBE2;strokeColor=#C3ADF0;strokeWidth=3;shadow=0;html=1;fontColor=#000000;hachureGap=4;fontFamily=Architects Daughter;fontSource=https%3A%2F%2Ffonts.googleapis.com%2Fcss%3Ffamily%3DArchitects%2BDaughter;fontSize=26;fontStyle=1" vertex="1" parent="1">
                    <mxGeometry x="471.5" y="25" width="130" height="40" as="geometry"/>
                </mxCell>
                <mxCell id="25" value="Leopard" style="rounded=1;fillColor=#64BBE2;strokeColor=#C3ADF0;strokeWidth=3;shadow=0;html=1;fontColor=#000000;hachureGap=4;fontFamily=Architects Daughter;fontSource=https%3A%2F%2Ffonts.googleapis.com%2Fcss%3Ffamily%3DArchitects%2BDaughter;fontSize=26;fontStyle=1" vertex="1" parent="1">
                    <mxGeometry x="591.5" y="85" width="130" height="40" as="geometry"/>
                </mxCell>
                <mxCell id="26" value="Horse" style="rounded=1;fillColor=#64BBE2;strokeColor=#C3ADF0;strokeWidth=3;shadow=0;html=1;fontColor=#000000;hachureGap=4;fontFamily=Architects Daughter;fontSource=https%3A%2F%2Ffonts.googleapis.com%2Fcss%3Ffamily%3DArchitects%2BDaughter;fontSize=26;fontStyle=1" vertex="1" parent="1">
                    <mxGeometry x="646.5" y="145" width="130" height="40" as="geometry"/>
                </mxCell>
                <mxCell id="27" value="Zebra" style="rounded=1;fillColor=#64BBE2;strokeColor=#C3ADF0;strokeWidth=3;shadow=0;html=1;fontColor=#000000;hachureGap=4;fontFamily=Architects Daughter;fontSource=https%3A%2F%2Ffonts.googleapis.com%2Fcss%3Ffamily%3DArchitects%2BDaughter;fontSize=26;fontStyle=1" vertex="1" parent="1">
                    <mxGeometry x="681.5" y="205" width="130" height="40" as="geometry"/>
                </mxCell>
                <mxCell id="28" value="Gazelle" style="rounded=1;fillColor=#64BBE2;strokeColor=#C3ADF0;strokeWidth=3;shadow=0;html=1;fontColor=#000000;hachureGap=4;fontFamily=Architects Daughter;fontSource=https%3A%2F%2Ffonts.googleapis.com%2Fcss%3Ffamily%3DArchitects%2BDaughter;fontSize=26;fontStyle=1" vertex="1" parent="1">
                    <mxGeometry x="696.5" y="285" width="130" height="40" as="geometry"/>
                </mxCell>
                <mxCell id="29" value="" style="edgeStyle=none;endArrow=none;strokeWidth=3;strokeColor=#C3ADF0;html=1;hachureGap=4;fontFamily=Architects Daughter;fontSource=https%3A%2F%2Ffonts.googleapis.com%2Fcss%3Ffamily%3DArchitects%2BDaughter;fontSize=26;shadow=0;fontColor=#000000;fontStyle=1" edge="1" parent="1" source="2" target="28">
                    <mxGeometry x="-238.5" y="-5" width="100" height="100" as="geometry">
                        <mxPoint x="-238.5" y="95" as="sourcePoint"/>
                        <mxPoint x="-138.5" y="-5" as="targetPoint"/>
                    </mxGeometry>
                </mxCell>
                <mxCell id="30" value="" style="edgeStyle=none;endArrow=none;strokeWidth=3;strokeColor=#C3ADF0;html=1;hachureGap=4;fontFamily=Architects Daughter;fontSource=https%3A%2F%2Ffonts.googleapis.com%2Fcss%3Ffamily%3DArchitects%2BDaughter;fontSize=26;shadow=0;fontColor=#000000;fontStyle=1" edge="1" parent="1" source="2" target="19">
                    <mxGeometry x="-238.5" y="-5" width="100" height="100" as="geometry">
                        <mxPoint x="-238.5" y="95" as="sourcePoint"/>
                        <mxPoint x="-138.5" y="-5" as="targetPoint"/>
                    </mxGeometry>
                </mxCell>
                <mxCell id="31" value="" style="edgeStyle=none;endArrow=none;strokeWidth=3;strokeColor=#C3ADF0;html=1;hachureGap=4;fontFamily=Architects Daughter;fontSource=https%3A%2F%2Ffonts.googleapis.com%2Fcss%3Ffamily%3DArchitects%2BDaughter;fontSize=26;shadow=0;fontColor=#000000;fontStyle=1" edge="1" parent="1" source="2" target="10">
                    <mxGeometry x="-238.5" y="-5" width="100" height="100" as="geometry">
                        <mxPoint x="-238.5" y="95" as="sourcePoint"/>
                        <mxPoint x="-138.5" y="-5" as="targetPoint"/>
                    </mxGeometry>
                </mxCell>
                <mxCell id="32" value="" style="edgeStyle=none;endArrow=none;strokeWidth=3;strokeColor=#C3ADF0;html=1;hachureGap=4;fontFamily=Architects Daughter;fontSource=https%3A%2F%2Ffonts.googleapis.com%2Fcss%3Ffamily%3DArchitects%2BDaughter;fontSize=26;shadow=0;fontColor=#000000;fontStyle=1" edge="1" parent="1" source="2" target="20">
                    <mxGeometry x="-238.5" y="-5" width="100" height="100" as="geometry">
                        <mxPoint x="-238.5" y="95" as="sourcePoint"/>
                        <mxPoint x="-138.5" y="-5" as="targetPoint"/>
                    </mxGeometry>
                </mxCell>
                <mxCell id="33" value="" style="edgeStyle=none;endArrow=none;strokeWidth=3;strokeColor=#C3ADF0;html=1;hachureGap=4;fontFamily=Architects Daughter;fontSource=https%3A%2F%2Ffonts.googleapis.com%2Fcss%3Ffamily%3DArchitects%2BDaughter;fontSize=26;shadow=0;fontColor=#000000;fontStyle=1" edge="1" parent="1" source="2" target="21">
                    <mxGeometry x="-238.5" y="-5" width="100" height="100" as="geometry">
                        <mxPoint x="-238.5" y="95" as="sourcePoint"/>
                        <mxPoint x="-138.5" y="-5" as="targetPoint"/>
                    </mxGeometry>
                </mxCell>
                <mxCell id="34" value="" style="edgeStyle=none;endArrow=none;strokeWidth=3;strokeColor=#C3ADF0;html=1;hachureGap=4;fontFamily=Architects Daughter;fontSource=https%3A%2F%2Ffonts.googleapis.com%2Fcss%3Ffamily%3DArchitects%2BDaughter;fontSize=26;shadow=0;fontColor=#000000;fontStyle=1" edge="1" parent="1" source="2" target="22">
                    <mxGeometry x="-238.5" y="-5" width="100" height="100" as="geometry">
                        <mxPoint x="-238.5" y="95" as="sourcePoint"/>
                        <mxPoint x="-138.5" y="-5" as="targetPoint"/>
                    </mxGeometry>
                </mxCell>
                <mxCell id="35" value="" style="edgeStyle=none;endArrow=none;strokeWidth=3;strokeColor=#C3ADF0;html=1;hachureGap=4;fontFamily=Architects Daughter;fontSource=https%3A%2F%2Ffonts.googleapis.com%2Fcss%3Ffamily%3DArchitects%2BDaughter;fontSize=26;shadow=0;fontColor=#000000;fontStyle=1" edge="1" parent="1" source="2" target="23">
                    <mxGeometry x="-238.5" y="-5" width="100" height="100" as="geometry">
                        <mxPoint x="-238.5" y="95" as="sourcePoint"/>
                        <mxPoint x="-138.5" y="-5" as="targetPoint"/>
                    </mxGeometry>
                </mxCell>
                <mxCell id="36" value="" style="edgeStyle=none;endArrow=none;strokeWidth=3;strokeColor=#C3ADF0;html=1;hachureGap=4;fontFamily=Architects Daughter;fontSource=https%3A%2F%2Ffonts.googleapis.com%2Fcss%3Ffamily%3DArchitects%2BDaughter;fontSize=26;shadow=0;fontColor=#000000;fontStyle=1" edge="1" parent="1" source="2" target="24">
                    <mxGeometry x="-238.5" y="-5" width="100" height="100" as="geometry">
                        <mxPoint x="-238.5" y="95" as="sourcePoint"/>
                        <mxPoint x="-138.5" y="-5" as="targetPoint"/>
                    </mxGeometry>
                </mxCell>
                <mxCell id="37" value="" style="edgeStyle=none;endArrow=none;strokeWidth=3;strokeColor=#C3ADF0;html=1;hachureGap=4;fontFamily=Architects Daughter;fontSource=https%3A%2F%2Ffonts.googleapis.com%2Fcss%3Ffamily%3DArchitects%2BDaughter;fontSize=26;shadow=0;fontColor=#000000;fontStyle=1" edge="1" parent="1" source="2" target="25">
                    <mxGeometry x="-238.5" y="-5" width="100" height="100" as="geometry">
                        <mxPoint x="-238.5" y="95" as="sourcePoint"/>
                        <mxPoint x="-138.5" y="-5" as="targetPoint"/>
                    </mxGeometry>
                </mxCell>
                <mxCell id="38" value="" style="edgeStyle=none;endArrow=none;strokeWidth=3;strokeColor=#C3ADF0;html=1;hachureGap=4;fontFamily=Architects Daughter;fontSource=https%3A%2F%2Ffonts.googleapis.com%2Fcss%3Ffamily%3DArchitects%2BDaughter;fontSize=26;shadow=0;fontColor=#000000;fontStyle=1" edge="1" parent="1" source="2" target="26">
                    <mxGeometry x="-238.5" y="-5" width="100" height="100" as="geometry">
                        <mxPoint x="-238.5" y="95" as="sourcePoint"/>
                        <mxPoint x="-138.5" y="-5" as="targetPoint"/>
                    </mxGeometry>
                </mxCell>
                <mxCell id="39" value="" style="edgeStyle=none;endArrow=none;strokeWidth=3;strokeColor=#C3ADF0;html=1;hachureGap=4;fontFamily=Architects Daughter;fontSource=https%3A%2F%2Ffonts.googleapis.com%2Fcss%3Ffamily%3DArchitects%2BDaughter;fontSize=26;shadow=0;fontColor=#000000;fontStyle=1" edge="1" parent="1" source="2" target="27">
                    <mxGeometry x="-238.5" y="-5" width="100" height="100" as="geometry">
                        <mxPoint x="-238.5" y="95" as="sourcePoint"/>
                        <mxPoint x="-138.5" y="-5" as="targetPoint"/>
                    </mxGeometry>
                </mxCell>
                <mxCell id="40" value="Bee" style="rounded=1;fillColor=#f5af58;strokeColor=#C3ADF0;strokeWidth=3;shadow=0;html=1;fontColor=#000000;hachureGap=4;fontFamily=Architects Daughter;fontSource=https%3A%2F%2Ffonts.googleapis.com%2Fcss%3Ffamily%3DArchitects%2BDaughter;fontSize=26;fontStyle=1" vertex="1" parent="1">
                    <mxGeometry x="896.5" y="280" width="120" height="40" as="geometry"/>
                </mxCell>
                <mxCell id="41" value="Hornet" style="rounded=1;fillColor=#f5af58;strokeColor=#C3ADF0;strokeWidth=3;shadow=0;html=1;fontColor=#000000;hachureGap=4;fontFamily=Architects Daughter;fontSource=https%3A%2F%2Ffonts.googleapis.com%2Fcss%3Ffamily%3DArchitects%2BDaughter;fontSize=26;fontStyle=1" vertex="1" parent="1">
                    <mxGeometry x="886.5" y="210" width="120" height="40" as="geometry"/>
                </mxCell>
                <mxCell id="42" value="Fly" style="rounded=1;fillColor=#f5af58;strokeColor=#C3ADF0;strokeWidth=3;shadow=0;html=1;fontColor=#000000;hachureGap=4;fontFamily=Architects Daughter;fontSource=https%3A%2F%2Ffonts.googleapis.com%2Fcss%3Ffamily%3DArchitects%2BDaughter;fontSize=26;fontStyle=1" vertex="1" parent="1">
                    <mxGeometry x="906.5" y="140" width="120" height="40" as="geometry"/>
                </mxCell>
                <mxCell id="43" value="Termite" style="rounded=1;fillColor=#f5af58;strokeColor=#C3ADF0;strokeWidth=3;shadow=0;html=1;fontColor=#000000;hachureGap=4;fontFamily=Architects Daughter;fontSource=https%3A%2F%2Ffonts.googleapis.com%2Fcss%3Ffamily%3DArchitects%2BDaughter;fontSize=26;fontStyle=1" vertex="1" parent="1">
                    <mxGeometry x="946.5" y="80" width="120" height="40" as="geometry"/>
                </mxCell>
                <mxCell id="44" value="Mantis" style="rounded=1;fillColor=#f5af58;strokeColor=#C3ADF0;strokeWidth=3;shadow=0;html=1;fontColor=#000000;hachureGap=4;fontFamily=Architects Daughter;fontSource=https%3A%2F%2Ffonts.googleapis.com%2Fcss%3Ffamily%3DArchitects%2BDaughter;fontSize=26;fontStyle=1" vertex="1" parent="1">
                    <mxGeometry x="1016.5" y="20" width="120" height="40" as="geometry"/>
                </mxCell>
                <mxCell id="45" value="Ladybug" style="rounded=1;fillColor=#f5af58;strokeColor=#C3ADF0;strokeWidth=3;shadow=0;html=1;fontColor=#000000;hachureGap=4;fontFamily=Architects Daughter;fontSource=https%3A%2F%2Ffonts.googleapis.com%2Fcss%3Ffamily%3DArchitects%2BDaughter;fontSize=26;fontStyle=1" vertex="1" parent="1">
                    <mxGeometry x="1146.5" y="20" width="120" height="40" as="geometry"/>
                </mxCell>
                <mxCell id="46" value="Butterfly" style="rounded=1;fillColor=#f5af58;strokeColor=#C3ADF0;strokeWidth=3;shadow=0;html=1;fontColor=#000000;hachureGap=4;fontFamily=Architects Daughter;fontSource=https%3A%2F%2Ffonts.googleapis.com%2Fcss%3Ffamily%3DArchitects%2BDaughter;fontSize=26;fontStyle=1" vertex="1" parent="1">
                    <mxGeometry x="1216.5" y="80" width="120" height="40" as="geometry"/>
                </mxCell>
                <mxCell id="47" value="Flea" style="rounded=1;fillColor=#f5af58;strokeColor=#C3ADF0;strokeWidth=3;shadow=0;html=1;fontColor=#000000;hachureGap=4;fontFamily=Architects Daughter;fontSource=https%3A%2F%2Ffonts.googleapis.com%2Fcss%3Ffamily%3DArchitects%2BDaughter;fontSize=26;fontStyle=1" vertex="1" parent="1">
                    <mxGeometry x="1266.5" y="140" width="120" height="40" as="geometry"/>
                </mxCell>
                <mxCell id="48" value="Mosquito" style="rounded=1;fillColor=#f5af58;strokeColor=#C3ADF0;strokeWidth=3;shadow=0;html=1;fontColor=#000000;hachureGap=4;fontFamily=Architects Daughter;fontSource=https%3A%2F%2Ffonts.googleapis.com%2Fcss%3Ffamily%3DArchitects%2BDaughter;fontSize=26;fontStyle=1" vertex="1" parent="1">
                    <mxGeometry x="1281.5" y="210" width="120" height="40" as="geometry"/>
                </mxCell>
                <mxCell id="49" value="Spider" style="rounded=1;fillColor=#f5af58;strokeColor=#C3ADF0;strokeWidth=3;shadow=0;html=1;fontColor=#000000;hachureGap=4;fontFamily=Architects Daughter;fontSource=https%3A%2F%2Ffonts.googleapis.com%2Fcss%3Ffamily%3DArchitects%2BDaughter;fontSize=26;fontStyle=1" vertex="1" parent="1">
                    <mxGeometry x="1276.5" y="270" width="120" height="40" as="geometry"/>
                </mxCell>
                <mxCell id="50" value="Bumblebee" style="rounded=1;fillColor=#f5af58;strokeColor=#C3ADF0;strokeWidth=3;shadow=0;html=1;fontColor=#000000;hachureGap=4;fontFamily=Architects Daughter;fontSource=https%3A%2F%2Ffonts.googleapis.com%2Fcss%3Ffamily%3DArchitects%2BDaughter;fontSize=26;fontStyle=1" vertex="1" parent="1">
                    <mxGeometry x="1221.5" y="340" width="120" height="40" as="geometry"/>
                </mxCell>
                <mxCell id="51" value="" style="edgeStyle=none;endArrow=none;strokeWidth=3;strokeColor=#C3ADF0;html=1;hachureGap=4;fontFamily=Architects Daughter;fontSource=https%3A%2F%2Ffonts.googleapis.com%2Fcss%3Ffamily%3DArchitects%2BDaughter;fontSize=26;shadow=0;fontColor=#000000;fontStyle=1" edge="1" parent="1" source="3" target="9">
                    <mxGeometry x="-13.5" y="-40" width="100" height="100" as="geometry">
                        <mxPoint x="-13.5" y="60" as="sourcePoint"/>
                        <mxPoint x="86.5" y="-40" as="targetPoint"/>
                    </mxGeometry>
                </mxCell>
                <mxCell id="52" value="" style="edgeStyle=none;endArrow=none;strokeWidth=3;strokeColor=#C3ADF0;html=1;hachureGap=4;fontFamily=Architects Daughter;fontSource=https%3A%2F%2Ffonts.googleapis.com%2Fcss%3Ffamily%3DArchitects%2BDaughter;fontSize=26;shadow=0;fontColor=#000000;fontStyle=1" edge="1" parent="1" source="3" target="40">
                    <mxGeometry x="-13.5" y="-40" width="100" height="100" as="geometry">
                        <mxPoint x="-13.5" y="60" as="sourcePoint"/>
                        <mxPoint x="86.5" y="-40" as="targetPoint"/>
                    </mxGeometry>
                </mxCell>
                <mxCell id="53" value="" style="edgeStyle=none;endArrow=none;strokeWidth=3;strokeColor=#C3ADF0;html=1;hachureGap=4;fontFamily=Architects Daughter;fontSource=https%3A%2F%2Ffonts.googleapis.com%2Fcss%3Ffamily%3DArchitects%2BDaughter;fontSize=26;shadow=0;fontColor=#000000;fontStyle=1" edge="1" parent="1" source="3" target="41">
                    <mxGeometry x="-13.5" y="-40" width="100" height="100" as="geometry">
                        <mxPoint x="-13.5" y="60" as="sourcePoint"/>
                        <mxPoint x="86.5" y="-40" as="targetPoint"/>
                    </mxGeometry>
                </mxCell>
                <mxCell id="54" value="" style="edgeStyle=none;endArrow=none;strokeWidth=3;strokeColor=#C3ADF0;html=1;hachureGap=4;fontFamily=Architects Daughter;fontSource=https%3A%2F%2Ffonts.googleapis.com%2Fcss%3Ffamily%3DArchitects%2BDaughter;fontSize=26;shadow=0;fontColor=#000000;fontStyle=1" edge="1" parent="1" source="3" target="42">
                    <mxGeometry x="-13.5" y="-40" width="100" height="100" as="geometry">
                        <mxPoint x="-13.5" y="60" as="sourcePoint"/>
                        <mxPoint x="86.5" y="-40" as="targetPoint"/>
                    </mxGeometry>
                </mxCell>
                <mxCell id="55" value="" style="edgeStyle=none;endArrow=none;strokeWidth=3;strokeColor=#C3ADF0;html=1;hachureGap=4;fontFamily=Architects Daughter;fontSource=https%3A%2F%2Ffonts.googleapis.com%2Fcss%3Ffamily%3DArchitects%2BDaughter;fontSize=26;shadow=0;fontColor=#000000;fontStyle=1" edge="1" parent="1" source="3" target="43">
                    <mxGeometry x="-13.5" y="-40" width="100" height="100" as="geometry">
                        <mxPoint x="-13.5" y="60" as="sourcePoint"/>
                        <mxPoint x="86.5" y="-40" as="targetPoint"/>
                    </mxGeometry>
                </mxCell>
                <mxCell id="56" value="" style="edgeStyle=none;endArrow=none;strokeWidth=3;strokeColor=#C3ADF0;html=1;hachureGap=4;fontFamily=Architects Daughter;fontSource=https%3A%2F%2Ffonts.googleapis.com%2Fcss%3Ffamily%3DArchitects%2BDaughter;fontSize=26;shadow=0;fontColor=#000000;fontStyle=1" edge="1" parent="1" source="3" target="44">
                    <mxGeometry x="-13.5" y="-40" width="100" height="100" as="geometry">
                        <mxPoint x="-13.5" y="60" as="sourcePoint"/>
                        <mxPoint x="86.5" y="-40" as="targetPoint"/>
                    </mxGeometry>
                </mxCell>
                <mxCell id="57" value="" style="edgeStyle=none;endArrow=none;strokeWidth=3;strokeColor=#C3ADF0;html=1;hachureGap=4;fontFamily=Architects Daughter;fontSource=https%3A%2F%2Ffonts.googleapis.com%2Fcss%3Ffamily%3DArchitects%2BDaughter;fontSize=26;shadow=0;fontColor=#000000;fontStyle=1" edge="1" parent="1" source="3" target="45">
                    <mxGeometry x="-13.5" y="-40" width="100" height="100" as="geometry">
                        <mxPoint x="-13.5" y="60" as="sourcePoint"/>
                        <mxPoint x="86.5" y="-40" as="targetPoint"/>
                    </mxGeometry>
                </mxCell>
                <mxCell id="58" value="" style="edgeStyle=none;endArrow=none;strokeWidth=3;strokeColor=#C3ADF0;html=1;hachureGap=4;fontFamily=Architects Daughter;fontSource=https%3A%2F%2Ffonts.googleapis.com%2Fcss%3Ffamily%3DArchitects%2BDaughter;fontSize=26;shadow=0;fontColor=#000000;fontStyle=1" edge="1" parent="1" source="3" target="46">
                    <mxGeometry x="-13.5" y="-40" width="100" height="100" as="geometry">
                        <mxPoint x="-13.5" y="60" as="sourcePoint"/>
                        <mxPoint x="86.5" y="-40" as="targetPoint"/>
                    </mxGeometry>
                </mxCell>
                <mxCell id="59" value="" style="edgeStyle=none;endArrow=none;strokeWidth=3;strokeColor=#C3ADF0;html=1;hachureGap=4;fontFamily=Architects Daughter;fontSource=https%3A%2F%2Ffonts.googleapis.com%2Fcss%3Ffamily%3DArchitects%2BDaughter;fontSize=26;shadow=0;fontColor=#000000;fontStyle=1" edge="1" parent="1" source="3" target="47">
                    <mxGeometry x="-13.5" y="-40" width="100" height="100" as="geometry">
                        <mxPoint x="-13.5" y="60" as="sourcePoint"/>
                        <mxPoint x="86.5" y="-40" as="targetPoint"/>
                    </mxGeometry>
                </mxCell>
                <mxCell id="60" value="" style="edgeStyle=none;endArrow=none;strokeWidth=3;strokeColor=#C3ADF0;html=1;hachureGap=4;fontFamily=Architects Daughter;fontSource=https%3A%2F%2Ffonts.googleapis.com%2Fcss%3Ffamily%3DArchitects%2BDaughter;fontSize=26;shadow=0;fontColor=#000000;fontStyle=1" edge="1" parent="1" source="3" target="48">
                    <mxGeometry x="-13.5" y="-40" width="100" height="100" as="geometry">
                        <mxPoint x="-13.5" y="60" as="sourcePoint"/>
                        <mxPoint x="86.5" y="-40" as="targetPoint"/>
                    </mxGeometry>
                </mxCell>
                <mxCell id="61" value="" style="edgeStyle=none;endArrow=none;strokeWidth=3;strokeColor=#C3ADF0;html=1;hachureGap=4;fontFamily=Architects Daughter;fontSource=https%3A%2F%2Ffonts.googleapis.com%2Fcss%3Ffamily%3DArchitects%2BDaughter;fontSize=26;shadow=0;fontColor=#000000;fontStyle=1" edge="1" parent="1" source="3" target="49">
                    <mxGeometry x="-13.5" y="-40" width="100" height="100" as="geometry">
                        <mxPoint x="-13.5" y="60" as="sourcePoint"/>
                        <mxPoint x="86.5" y="-40" as="targetPoint"/>
                    </mxGeometry>
                </mxCell>
                <mxCell id="62" value="" style="edgeStyle=none;endArrow=none;strokeWidth=3;strokeColor=#C3ADF0;html=1;hachureGap=4;fontFamily=Architects Daughter;fontSource=https%3A%2F%2Ffonts.googleapis.com%2Fcss%3Ffamily%3DArchitects%2BDaughter;fontSize=26;shadow=0;fontColor=#000000;fontStyle=1" edge="1" parent="1" source="3" target="50">
                    <mxGeometry x="-13.5" y="-40" width="100" height="100" as="geometry">
                        <mxPoint x="-13.5" y="60" as="sourcePoint"/>
                        <mxPoint x="86.5" y="-40" as="targetPoint"/>
                    </mxGeometry>
                </mxCell>
                <mxCell id="63" value="Eagle" style="rounded=1;fillColor=#f08e81;strokeColor=#C3ADF0;strokeWidth=3;shadow=0;html=1;fontColor=#000000;hachureGap=4;fontFamily=Architects Daughter;fontSource=https%3A%2F%2Ffonts.googleapis.com%2Fcss%3Ffamily%3DArchitects%2BDaughter;fontSize=26;fontStyle=1" vertex="1" parent="1">
                    <mxGeometry x="1594" y="455" width="120" height="40" as="geometry"/>
                </mxCell>
                <mxCell id="64" value="Pigeon" style="rounded=1;fillColor=#f08e81;strokeColor=#C3ADF0;strokeWidth=3;shadow=0;html=1;fontColor=#000000;hachureGap=4;fontFamily=Architects Daughter;fontSource=https%3A%2F%2Ffonts.googleapis.com%2Fcss%3Ffamily%3DArchitects%2BDaughter;fontSize=26;fontStyle=1" vertex="1" parent="1">
                    <mxGeometry x="1929" y="340" width="120" height="40" as="geometry"/>
                </mxCell>
                <mxCell id="65" value="Hawk" style="rounded=1;fillColor=#f08e81;strokeColor=#C3ADF0;strokeWidth=3;shadow=0;html=1;fontColor=#000000;hachureGap=4;fontFamily=Architects Daughter;fontSource=https%3A%2F%2Ffonts.googleapis.com%2Fcss%3Ffamily%3DArchitects%2BDaughter;fontSize=26;fontStyle=1" vertex="1" parent="1">
                    <mxGeometry x="1474" y="375" width="120" height="40" as="geometry"/>
                </mxCell>
                <mxCell id="66" value="Falcon" style="rounded=1;fillColor=#f08e81;strokeColor=#C3ADF0;strokeWidth=3;shadow=0;html=1;fontColor=#000000;hachureGap=4;fontFamily=Architects Daughter;fontSource=https%3A%2F%2Ffonts.googleapis.com%2Fcss%3Ffamily%3DArchitects%2BDaughter;fontSize=26;fontStyle=1" vertex="1" parent="1">
                    <mxGeometry x="1504" y="310" width="120" height="40" as="geometry"/>
                </mxCell>
                <mxCell id="67" value="Sparrow" style="rounded=1;fillColor=#f08e81;strokeColor=#C3ADF0;strokeWidth=3;shadow=0;html=1;fontColor=#000000;hachureGap=4;fontFamily=Architects Daughter;fontSource=https%3A%2F%2Ffonts.googleapis.com%2Fcss%3Ffamily%3DArchitects%2BDaughter;fontSize=26;fontStyle=1" vertex="1" parent="1">
                    <mxGeometry x="1524" y="230" width="120" height="40" as="geometry"/>
                </mxCell>
                <mxCell id="68" value="Stork" style="rounded=1;fillColor=#f08e81;strokeColor=#C3ADF0;strokeWidth=3;shadow=0;html=1;fontColor=#000000;hachureGap=4;fontFamily=Architects Daughter;fontSource=https%3A%2F%2Ffonts.googleapis.com%2Fcss%3Ffamily%3DArchitects%2BDaughter;fontSize=26;fontStyle=1" vertex="1" parent="1">
                    <mxGeometry x="1614" y="160" width="120" height="40" as="geometry"/>
                </mxCell>
                <mxCell id="69" value="Flamingo" style="rounded=1;fillColor=#f08e81;strokeColor=#C3ADF0;strokeWidth=3;shadow=0;html=1;fontColor=#000000;hachureGap=4;fontFamily=Architects Daughter;fontSource=https%3A%2F%2Ffonts.googleapis.com%2Fcss%3Ffamily%3DArchitects%2BDaughter;fontSize=26;fontStyle=1" vertex="1" parent="1">
                    <mxGeometry x="1749" y="105" width="120" height="40" as="geometry"/>
                </mxCell>
                <mxCell id="70" value="Penguin" style="rounded=1;fillColor=#f08e81;strokeColor=#C3ADF0;strokeWidth=3;shadow=0;html=1;fontColor=#000000;hachureGap=4;fontFamily=Architects Daughter;fontSource=https%3A%2F%2Ffonts.googleapis.com%2Fcss%3Ffamily%3DArchitects%2BDaughter;fontSize=26;fontStyle=1" vertex="1" parent="1">
                    <mxGeometry x="1844" y="190" width="120" height="40" as="geometry"/>
                </mxCell>
                <mxCell id="71" value="Owl" style="rounded=1;fillColor=#f08e81;strokeColor=#C3ADF0;strokeWidth=3;shadow=0;html=1;fontColor=#000000;hachureGap=4;fontFamily=Architects Daughter;fontSource=https%3A%2F%2Ffonts.googleapis.com%2Fcss%3Ffamily%3DArchitects%2BDaughter;fontSize=26;fontStyle=1" vertex="1" parent="1">
                    <mxGeometry x="1899" y="260" width="120" height="40" as="geometry"/>
                </mxCell>
                <mxCell id="72" value="Albatross" style="rounded=1;fillColor=#f08e81;strokeColor=#C3ADF0;strokeWidth=3;shadow=0;html=1;fontColor=#000000;hachureGap=4;fontFamily=Architects Daughter;fontSource=https%3A%2F%2Ffonts.googleapis.com%2Fcss%3Ffamily%3DArchitects%2BDaughter;fontSize=26;fontStyle=1" vertex="1" parent="1">
                    <mxGeometry x="1674" y="515" width="120" height="40" as="geometry"/>
                </mxCell>
                <mxCell id="73" value="Pelican" style="rounded=1;fillColor=#f08e81;strokeColor=#C3ADF0;strokeWidth=3;shadow=0;html=1;fontColor=#000000;hachureGap=4;fontFamily=Architects Daughter;fontSource=https%3A%2F%2Ffonts.googleapis.com%2Fcss%3Ffamily%3DArchitects%2BDaughter;fontSize=26;fontStyle=1" vertex="1" parent="1">
                    <mxGeometry x="1764" y="445" width="120" height="40" as="geometry"/>
                </mxCell>
                <mxCell id="74" value="Swallow" style="rounded=1;fillColor=#f08e81;strokeColor=#C3ADF0;strokeWidth=3;shadow=0;html=1;fontColor=#000000;hachureGap=4;fontFamily=Architects Daughter;fontSource=https%3A%2F%2Ffonts.googleapis.com%2Fcss%3Ffamily%3DArchitects%2BDaughter;fontSize=26;fontStyle=1" vertex="1" parent="1">
                    <mxGeometry x="1859" y="400" width="120" height="40" as="geometry"/>
                </mxCell>
                <mxCell id="75" value="" style="edgeStyle=none;endArrow=none;strokeWidth=3;strokeColor=#C3ADF0;html=1;hachureGap=4;fontFamily=Architects Daughter;fontSource=https%3A%2F%2Ffonts.googleapis.com%2Fcss%3Ffamily%3DArchitects%2BDaughter;fontSize=26;shadow=0;fontColor=#000000;fontStyle=1" edge="1" parent="1" source="4" target="63">
                    <mxGeometry x="14" y="45" width="100" height="100" as="geometry">
                        <mxPoint x="14" y="145" as="sourcePoint"/>
                        <mxPoint x="114" y="45" as="targetPoint"/>
                    </mxGeometry>
                </mxCell>
                <mxCell id="76" value="" style="edgeStyle=none;endArrow=none;strokeWidth=3;strokeColor=#C3ADF0;html=1;hachureGap=4;fontFamily=Architects Daughter;fontSource=https%3A%2F%2Ffonts.googleapis.com%2Fcss%3Ffamily%3DArchitects%2BDaughter;fontSize=26;shadow=0;fontColor=#000000;fontStyle=1" edge="1" parent="1" source="4" target="65">
                    <mxGeometry x="14" y="45" width="100" height="100" as="geometry">
                        <mxPoint x="14" y="145" as="sourcePoint"/>
                        <mxPoint x="114" y="45" as="targetPoint"/>
                    </mxGeometry>
                </mxCell>
                <mxCell id="77" value="" style="edgeStyle=none;endArrow=none;strokeWidth=3;strokeColor=#C3ADF0;html=1;hachureGap=4;fontFamily=Architects Daughter;fontSource=https%3A%2F%2Ffonts.googleapis.com%2Fcss%3Ffamily%3DArchitects%2BDaughter;fontSize=26;shadow=0;fontColor=#000000;fontStyle=1" edge="1" parent="1" source="4" target="66">
                    <mxGeometry x="14" y="45" width="100" height="100" as="geometry">
                        <mxPoint x="14" y="145" as="sourcePoint"/>
                        <mxPoint x="114" y="45" as="targetPoint"/>
                    </mxGeometry>
                </mxCell>
                <mxCell id="78" value="" style="edgeStyle=none;endArrow=none;strokeWidth=3;strokeColor=#C3ADF0;html=1;hachureGap=4;fontFamily=Architects Daughter;fontSource=https%3A%2F%2Ffonts.googleapis.com%2Fcss%3Ffamily%3DArchitects%2BDaughter;fontSize=26;shadow=0;fontColor=#000000;fontStyle=1" edge="1" parent="1" source="4" target="67">
                    <mxGeometry x="14" y="45" width="100" height="100" as="geometry">
                        <mxPoint x="14" y="145" as="sourcePoint"/>
                        <mxPoint x="114" y="45" as="targetPoint"/>
                    </mxGeometry>
                </mxCell>
                <mxCell id="79" value="" style="edgeStyle=none;endArrow=none;strokeWidth=3;strokeColor=#C3ADF0;html=1;hachureGap=4;fontFamily=Architects Daughter;fontSource=https%3A%2F%2Ffonts.googleapis.com%2Fcss%3Ffamily%3DArchitects%2BDaughter;fontSize=26;shadow=0;fontColor=#000000;fontStyle=1" edge="1" parent="1" source="4" target="68">
                    <mxGeometry x="14" y="45" width="100" height="100" as="geometry">
                        <mxPoint x="14" y="145" as="sourcePoint"/>
                        <mxPoint x="114" y="45" as="targetPoint"/>
                    </mxGeometry>
                </mxCell>
                <mxCell id="80" value="" style="edgeStyle=none;endArrow=none;strokeWidth=3;strokeColor=#C3ADF0;html=1;hachureGap=4;fontFamily=Architects Daughter;fontSource=https%3A%2F%2Ffonts.googleapis.com%2Fcss%3Ffamily%3DArchitects%2BDaughter;fontSize=26;shadow=0;fontColor=#000000;fontStyle=1" edge="1" parent="1" source="4" target="69">
                    <mxGeometry x="14" y="45" width="100" height="100" as="geometry">
                        <mxPoint x="14" y="145" as="sourcePoint"/>
                        <mxPoint x="114" y="45" as="targetPoint"/>
                    </mxGeometry>
                </mxCell>
                <mxCell id="81" value="" style="edgeStyle=none;endArrow=none;strokeWidth=3;strokeColor=#C3ADF0;html=1;hachureGap=4;fontFamily=Architects Daughter;fontSource=https%3A%2F%2Ffonts.googleapis.com%2Fcss%3Ffamily%3DArchitects%2BDaughter;fontSize=26;shadow=0;fontColor=#000000;fontStyle=1" edge="1" parent="1" source="4" target="70">
                    <mxGeometry x="14" y="45" width="100" height="100" as="geometry">
                        <mxPoint x="14" y="145" as="sourcePoint"/>
                        <mxPoint x="114" y="45" as="targetPoint"/>
                    </mxGeometry>
                </mxCell>
                <mxCell id="82" value="" style="edgeStyle=none;endArrow=none;strokeWidth=3;strokeColor=#C3ADF0;html=1;hachureGap=4;fontFamily=Architects Daughter;fontSource=https%3A%2F%2Ffonts.googleapis.com%2Fcss%3Ffamily%3DArchitects%2BDaughter;fontSize=26;shadow=0;fontColor=#000000;fontStyle=1" edge="1" parent="1" source="4" target="71">
                    <mxGeometry x="14" y="45" width="100" height="100" as="geometry">
                        <mxPoint x="14" y="145" as="sourcePoint"/>
                        <mxPoint x="114" y="45" as="targetPoint"/>
                    </mxGeometry>
                </mxCell>
                <mxCell id="83" value="" style="edgeStyle=none;endArrow=none;strokeWidth=3;strokeColor=#C3ADF0;html=1;hachureGap=4;fontFamily=Architects Daughter;fontSource=https%3A%2F%2Ffonts.googleapis.com%2Fcss%3Ffamily%3DArchitects%2BDaughter;fontSize=26;shadow=0;fontColor=#000000;fontStyle=1" edge="1" parent="1" source="4" target="64">
                    <mxGeometry x="14" y="45" width="100" height="100" as="geometry">
                        <mxPoint x="14" y="145" as="sourcePoint"/>
                        <mxPoint x="114" y="45" as="targetPoint"/>
                    </mxGeometry>
                </mxCell>
                <mxCell id="84" value="" style="edgeStyle=none;endArrow=none;strokeWidth=3;strokeColor=#C3ADF0;html=1;hachureGap=4;fontFamily=Architects Daughter;fontSource=https%3A%2F%2Ffonts.googleapis.com%2Fcss%3Ffamily%3DArchitects%2BDaughter;fontSize=26;shadow=0;fontColor=#000000;fontStyle=1" edge="1" parent="1" source="4" target="74">
                    <mxGeometry x="14" y="45" width="100" height="100" as="geometry">
                        <mxPoint x="14" y="145" as="sourcePoint"/>
                        <mxPoint x="114" y="45" as="targetPoint"/>
                    </mxGeometry>
                </mxCell>
                <mxCell id="85" value="" style="edgeStyle=none;endArrow=none;strokeWidth=3;strokeColor=#C3ADF0;html=1;hachureGap=4;fontFamily=Architects Daughter;fontSource=https%3A%2F%2Ffonts.googleapis.com%2Fcss%3Ffamily%3DArchitects%2BDaughter;fontSize=26;shadow=0;fontColor=#000000;fontStyle=1" edge="1" parent="1" source="4" target="73">
                    <mxGeometry x="14" y="45" width="100" height="100" as="geometry">
                        <mxPoint x="14" y="145" as="sourcePoint"/>
                        <mxPoint x="114" y="45" as="targetPoint"/>
                    </mxGeometry>
                </mxCell>
                <mxCell id="86" value="" style="edgeStyle=none;endArrow=none;strokeWidth=3;strokeColor=#C3ADF0;html=1;hachureGap=4;fontFamily=Architects Daughter;fontSource=https%3A%2F%2Ffonts.googleapis.com%2Fcss%3Ffamily%3DArchitects%2BDaughter;fontSize=26;shadow=0;fontColor=#000000;fontStyle=1" edge="1" parent="1" source="4" target="72">
                    <mxGeometry x="14" y="45" width="100" height="100" as="geometry">
                        <mxPoint x="14" y="145" as="sourcePoint"/>
                        <mxPoint x="114" y="45" as="targetPoint"/>
                    </mxGeometry>
                </mxCell>
                <mxCell id="87" value="Perch" style="rounded=1;fillColor=#64BBE2;strokeColor=#C3ADF0;strokeWidth=3;shadow=0;html=1;fontColor=#000000;hachureGap=4;fontFamily=Architects Daughter;fontSource=https%3A%2F%2Ffonts.googleapis.com%2Fcss%3Ffamily%3DArchitects%2BDaughter;fontSize=26;fontStyle=1" vertex="1" parent="1">
                    <mxGeometry x="1764" y="705" width="120" height="40" as="geometry"/>
                </mxCell>
                <mxCell id="88" value="Mackerel" style="rounded=1;fillColor=#64BBE2;strokeColor=#C3ADF0;strokeWidth=3;shadow=0;html=1;fontColor=#000000;hachureGap=4;fontFamily=Architects Daughter;fontSource=https%3A%2F%2Ffonts.googleapis.com%2Fcss%3Ffamily%3DArchitects%2BDaughter;fontSize=26;fontStyle=1" vertex="1" parent="1">
                    <mxGeometry x="1794" y="635" width="120" height="40" as="geometry"/>
                </mxCell>
                <mxCell id="89" value="Tuna" style="rounded=1;fillColor=#64BBE2;strokeColor=#C3ADF0;strokeWidth=3;shadow=0;html=1;fontColor=#000000;hachureGap=4;fontFamily=Architects Daughter;fontSource=https%3A%2F%2Ffonts.googleapis.com%2Fcss%3Ffamily%3DArchitects%2BDaughter;fontSize=26;fontStyle=1" vertex="1" parent="1">
                    <mxGeometry x="1919" y="605" width="120" height="40" as="geometry"/>
                </mxCell>
                <mxCell id="90" value="Shark" style="rounded=1;fillColor=#64BBE2;strokeColor=#C3ADF0;strokeWidth=3;shadow=0;html=1;fontColor=#000000;hachureGap=4;fontFamily=Architects Daughter;fontSource=https%3A%2F%2Ffonts.googleapis.com%2Fcss%3Ffamily%3DArchitects%2BDaughter;fontSize=26;fontStyle=1" vertex="1" parent="1">
                    <mxGeometry x="2039" y="555" width="120" height="40" as="geometry"/>
                </mxCell>
                <mxCell id="91" value="Whale" style="rounded=1;fillColor=#64BBE2;strokeColor=#C3ADF0;strokeWidth=3;shadow=0;html=1;fontColor=#000000;hachureGap=4;fontFamily=Architects Daughter;fontSource=https%3A%2F%2Ffonts.googleapis.com%2Fcss%3Ffamily%3DArchitects%2BDaughter;fontSize=26;fontStyle=1" vertex="1" parent="1">
                    <mxGeometry x="2084" y="645" width="120" height="40" as="geometry"/>
                </mxCell>
                <mxCell id="92" value="Bass" style="rounded=1;fillColor=#64BBE2;strokeColor=#C3ADF0;strokeWidth=3;shadow=0;html=1;fontColor=#000000;hachureGap=4;fontFamily=Architects Daughter;fontSource=https%3A%2F%2Ffonts.googleapis.com%2Fcss%3Ffamily%3DArchitects%2BDaughter;fontSize=26;fontStyle=1" vertex="1" parent="1">
                    <mxGeometry x="2154" y="725" width="120" height="40" as="geometry"/>
                </mxCell>
                <mxCell id="93" value="Eel" style="rounded=1;fillColor=#64BBE2;strokeColor=#C3ADF0;strokeWidth=3;shadow=0;html=1;fontColor=#000000;hachureGap=4;fontFamily=Architects Daughter;fontSource=https%3A%2F%2Ffonts.googleapis.com%2Fcss%3Ffamily%3DArchitects%2BDaughter;fontSize=26;fontStyle=1" vertex="1" parent="1">
                    <mxGeometry x="2104" y="905" width="120" height="40" as="geometry"/>
                </mxCell>
                <mxCell id="94" value="Oyster" style="rounded=1;fillColor=#64BBE2;strokeColor=#C3ADF0;strokeWidth=3;shadow=0;html=1;fontColor=#000000;hachureGap=4;fontFamily=Architects Daughter;fontSource=https%3A%2F%2Ffonts.googleapis.com%2Fcss%3Ffamily%3DArchitects%2BDaughter;fontSize=26;fontStyle=1" vertex="1" parent="1">
                    <mxGeometry x="2164" y="810" width="120" height="40" as="geometry"/>
                </mxCell>
                <mxCell id="95" value="Ray" style="rounded=1;fillColor=#64BBE2;strokeColor=#C3ADF0;strokeWidth=3;shadow=0;html=1;fontColor=#000000;hachureGap=4;fontFamily=Architects Daughter;fontSource=https%3A%2F%2Ffonts.googleapis.com%2Fcss%3Ffamily%3DArchitects%2BDaughter;fontSize=26;fontStyle=1" vertex="1" parent="1">
                    <mxGeometry x="1964" y="955" width="120" height="40" as="geometry"/>
                </mxCell>
                <mxCell id="96" value="Trout" style="rounded=1;fillColor=#64BBE2;strokeColor=#C3ADF0;strokeWidth=3;shadow=0;html=1;fontColor=#000000;hachureGap=4;fontFamily=Architects Daughter;fontSource=https%3A%2F%2Ffonts.googleapis.com%2Fcss%3Ffamily%3DArchitects%2BDaughter;fontSize=26;fontStyle=1" vertex="1" parent="1">
                    <mxGeometry x="1839" y="895" width="120" height="40" as="geometry"/>
                </mxCell>
                <mxCell id="97" value="Catfish" style="rounded=1;fillColor=#64BBE2;strokeColor=#C3ADF0;strokeWidth=3;shadow=0;html=1;fontColor=#000000;hachureGap=4;fontFamily=Architects Daughter;fontSource=https%3A%2F%2Ffonts.googleapis.com%2Fcss%3Ffamily%3DArchitects%2BDaughter;fontSize=26;fontStyle=1" vertex="1" parent="1">
                    <mxGeometry x="1739" y="830" width="120" height="40" as="geometry"/>
                </mxCell>
                <mxCell id="98" value="" style="edgeStyle=none;endArrow=none;strokeWidth=3;strokeColor=#C3ADF0;html=1;hachureGap=4;fontFamily=Architects Daughter;fontSource=https%3A%2F%2Ffonts.googleapis.com%2Fcss%3Ffamily%3DArchitects%2BDaughter;fontSize=26;shadow=0;fontColor=#000000;fontStyle=1" edge="1" parent="1" source="5" target="87">
                    <mxGeometry x="-41" y="135" width="100" height="100" as="geometry">
                        <mxPoint x="-41" y="235" as="sourcePoint"/>
                        <mxPoint x="59" y="135" as="targetPoint"/>
                    </mxGeometry>
                </mxCell>
                <mxCell id="99" value="" style="edgeStyle=none;endArrow=none;strokeWidth=3;strokeColor=#C3ADF0;html=1;hachureGap=4;fontFamily=Architects Daughter;fontSource=https%3A%2F%2Ffonts.googleapis.com%2Fcss%3Ffamily%3DArchitects%2BDaughter;fontSize=26;shadow=0;fontColor=#000000;fontStyle=1" edge="1" parent="1" source="5" target="88">
                    <mxGeometry x="-41" y="135" width="100" height="100" as="geometry">
                        <mxPoint x="-41" y="235" as="sourcePoint"/>
                        <mxPoint x="59" y="135" as="targetPoint"/>
                    </mxGeometry>
                </mxCell>
                <mxCell id="100" value="" style="edgeStyle=none;endArrow=none;strokeWidth=3;strokeColor=#C3ADF0;html=1;hachureGap=4;fontFamily=Architects Daughter;fontSource=https%3A%2F%2Ffonts.googleapis.com%2Fcss%3Ffamily%3DArchitects%2BDaughter;fontSize=26;shadow=0;fontColor=#000000;fontStyle=1" edge="1" parent="1" source="5" target="89">
                    <mxGeometry x="-41" y="135" width="100" height="100" as="geometry">
                        <mxPoint x="-41" y="235" as="sourcePoint"/>
                        <mxPoint x="59" y="135" as="targetPoint"/>
                    </mxGeometry>
                </mxCell>
                <mxCell id="101" value="" style="edgeStyle=none;endArrow=none;strokeWidth=3;strokeColor=#C3ADF0;html=1;hachureGap=4;fontFamily=Architects Daughter;fontSource=https%3A%2F%2Ffonts.googleapis.com%2Fcss%3Ffamily%3DArchitects%2BDaughter;fontSize=26;shadow=0;fontColor=#000000;fontStyle=1" edge="1" parent="1" source="5" target="90">
                    <mxGeometry x="-41" y="135" width="100" height="100" as="geometry">
                        <mxPoint x="-41" y="235" as="sourcePoint"/>
                        <mxPoint x="59" y="135" as="targetPoint"/>
                    </mxGeometry>
                </mxCell>
                <mxCell id="102" value="" style="edgeStyle=none;endArrow=none;strokeWidth=3;strokeColor=#C3ADF0;html=1;hachureGap=4;fontFamily=Architects Daughter;fontSource=https%3A%2F%2Ffonts.googleapis.com%2Fcss%3Ffamily%3DArchitects%2BDaughter;fontSize=26;shadow=0;fontColor=#000000;fontStyle=1" edge="1" parent="1" source="5" target="91">
                    <mxGeometry x="-41" y="135" width="100" height="100" as="geometry">
                        <mxPoint x="-41" y="235" as="sourcePoint"/>
                        <mxPoint x="59" y="135" as="targetPoint"/>
                    </mxGeometry>
                </mxCell>
                <mxCell id="103" value="" style="edgeStyle=none;endArrow=none;strokeWidth=3;strokeColor=#C3ADF0;html=1;hachureGap=4;fontFamily=Architects Daughter;fontSource=https%3A%2F%2Ffonts.googleapis.com%2Fcss%3Ffamily%3DArchitects%2BDaughter;fontSize=26;shadow=0;fontColor=#000000;fontStyle=1" edge="1" parent="1" source="5" target="92">
                    <mxGeometry x="-41" y="135" width="100" height="100" as="geometry">
                        <mxPoint x="-41" y="235" as="sourcePoint"/>
                        <mxPoint x="59" y="135" as="targetPoint"/>
                    </mxGeometry>
                </mxCell>
                <mxCell id="104" value="" style="edgeStyle=none;endArrow=none;strokeWidth=3;strokeColor=#C3ADF0;html=1;hachureGap=4;fontFamily=Architects Daughter;fontSource=https%3A%2F%2Ffonts.googleapis.com%2Fcss%3Ffamily%3DArchitects%2BDaughter;fontSize=26;shadow=0;fontColor=#000000;fontStyle=1" edge="1" parent="1" source="5" target="94">
                    <mxGeometry x="-41" y="135" width="100" height="100" as="geometry">
                        <mxPoint x="-41" y="235" as="sourcePoint"/>
                        <mxPoint x="59" y="135" as="targetPoint"/>
                    </mxGeometry>
                </mxCell>
                <mxCell id="105" value="" style="edgeStyle=none;endArrow=none;strokeWidth=3;strokeColor=#C3ADF0;html=1;hachureGap=4;fontFamily=Architects Daughter;fontSource=https%3A%2F%2Ffonts.googleapis.com%2Fcss%3Ffamily%3DArchitects%2BDaughter;fontSize=26;shadow=0;fontColor=#000000;fontStyle=1" edge="1" parent="1" source="5" target="93">
                    <mxGeometry x="-41" y="135" width="100" height="100" as="geometry">
                        <mxPoint x="-41" y="235" as="sourcePoint"/>
                        <mxPoint x="59" y="135" as="targetPoint"/>
                    </mxGeometry>
                </mxCell>
                <mxCell id="106" value="" style="edgeStyle=none;endArrow=none;strokeWidth=3;strokeColor=#C3ADF0;html=1;hachureGap=4;fontFamily=Architects Daughter;fontSource=https%3A%2F%2Ffonts.googleapis.com%2Fcss%3Ffamily%3DArchitects%2BDaughter;fontSize=26;shadow=0;fontColor=#000000;fontStyle=1" edge="1" parent="1" source="5" target="95">
                    <mxGeometry x="-41" y="135" width="100" height="100" as="geometry">
                        <mxPoint x="-41" y="235" as="sourcePoint"/>
                        <mxPoint x="59" y="135" as="targetPoint"/>
                    </mxGeometry>
                </mxCell>
                <mxCell id="107" value="" style="edgeStyle=none;endArrow=none;strokeWidth=3;strokeColor=#C3ADF0;html=1;hachureGap=4;fontFamily=Architects Daughter;fontSource=https%3A%2F%2Ffonts.googleapis.com%2Fcss%3Ffamily%3DArchitects%2BDaughter;fontSize=26;shadow=0;fontColor=#000000;fontStyle=1" edge="1" parent="1" source="5" target="96">
                    <mxGeometry x="-41" y="135" width="100" height="100" as="geometry">
                        <mxPoint x="-41" y="235" as="sourcePoint"/>
                        <mxPoint x="59" y="135" as="targetPoint"/>
                    </mxGeometry>
                </mxCell>
                <mxCell id="108" value="" style="edgeStyle=none;endArrow=none;strokeWidth=3;strokeColor=#C3ADF0;html=1;hachureGap=4;fontFamily=Architects Daughter;fontSource=https%3A%2F%2Ffonts.googleapis.com%2Fcss%3Ffamily%3DArchitects%2BDaughter;fontSize=26;shadow=0;fontColor=#000000;fontStyle=1" edge="1" parent="1" source="5" target="97">
                    <mxGeometry x="-41" y="135" width="100" height="100" as="geometry">
                        <mxPoint x="-41" y="235" as="sourcePoint"/>
                        <mxPoint x="59" y="135" as="targetPoint"/>
                    </mxGeometry>
                </mxCell>
                <mxCell id="109" value="Streptococcus" style="rounded=1;fillColor=#a29dc5;strokeColor=#C3ADF0;strokeWidth=3;shadow=0;html=1;fontColor=#000000;hachureGap=4;fontFamily=Architects Daughter;fontSource=https%3A%2F%2Ffonts.googleapis.com%2Fcss%3Ffamily%3DArchitects%2BDaughter;fontSize=26;fontStyle=1" vertex="1" parent="1">
                    <mxGeometry x="1629" y="1025.5" width="120" height="40" as="geometry"/>
                </mxCell>
                <mxCell id="110" value="Echericia Colli" style="rounded=1;fillColor=#a29dc5;strokeColor=#C3ADF0;strokeWidth=3;shadow=0;html=1;fontColor=#000000;hachureGap=4;fontFamily=Architects Daughter;fontSource=https%3A%2F%2Ffonts.googleapis.com%2Fcss%3Ffamily%3DArchitects%2BDaughter;fontSize=26;fontStyle=1" vertex="1" parent="1">
                    <mxGeometry x="1614" y="1240" width="120" height="40" as="geometry"/>
                </mxCell>
                <mxCell id="111" value="Lactobacyllus" style="rounded=1;fillColor=#a29dc5;strokeColor=#C3ADF0;strokeWidth=3;shadow=0;html=1;fontColor=#000000;hachureGap=4;fontFamily=Architects Daughter;fontSource=https%3A%2F%2Ffonts.googleapis.com%2Fcss%3Ffamily%3DArchitects%2BDaughter;fontSize=26;fontStyle=1" vertex="1" parent="1">
                    <mxGeometry x="1784" y="1052.5" width="120" height="40" as="geometry"/>
                </mxCell>
                <mxCell id="112" value="Helicobacter" style="rounded=1;fillColor=#a29dc5;strokeColor=#C3ADF0;strokeWidth=3;shadow=0;html=1;fontColor=#000000;hachureGap=4;fontFamily=Architects Daughter;fontSource=https%3A%2F%2Ffonts.googleapis.com%2Fcss%3Ffamily%3DArchitects%2BDaughter;fontSize=26;fontStyle=1" vertex="1" parent="1">
                    <mxGeometry x="1884" y="1132.5" width="120" height="40" as="geometry"/>
                </mxCell>
                <mxCell id="113" value="Bifidobacterium" style="rounded=1;fillColor=#a29dc5;strokeColor=#C3ADF0;strokeWidth=3;shadow=0;html=1;fontColor=#000000;hachureGap=4;fontFamily=Architects Daughter;fontSource=https%3A%2F%2Ffonts.googleapis.com%2Fcss%3Ffamily%3DArchitects%2BDaughter;fontSize=26;fontStyle=1" vertex="1" parent="1">
                    <mxGeometry x="1804" y="1270" width="120" height="40" as="geometry"/>
                </mxCell>
                <mxCell id="114" value="Staphyllococcus" style="rounded=1;fillColor=#a29dc5;strokeColor=#C3ADF0;strokeWidth=3;shadow=0;html=1;fontColor=#000000;hachureGap=4;fontFamily=Architects Daughter;fontSource=https%3A%2F%2Ffonts.googleapis.com%2Fcss%3Ffamily%3DArchitects%2BDaughter;fontSize=26;fontStyle=1" vertex="1" parent="1">
                    <mxGeometry x="1534" y="1150" width="120" height="40" as="geometry"/>
                </mxCell>
                <mxCell id="115" value="" style="edgeStyle=none;endArrow=none;strokeWidth=3;strokeColor=#C3ADF0;html=1;hachureGap=4;fontFamily=Architects Daughter;fontSource=https%3A%2F%2Ffonts.googleapis.com%2Fcss%3Ffamily%3DArchitects%2BDaughter;fontSize=26;shadow=0;fontColor=#000000;fontStyle=1" edge="1" parent="1" source="6" target="112">
                    <mxGeometry x="234" y="-165" width="100" height="100" as="geometry">
                        <mxPoint x="234" y="-65" as="sourcePoint"/>
                        <mxPoint x="334" y="-165" as="targetPoint"/>
                    </mxGeometry>
                </mxCell>
                <mxCell id="116" value="" style="edgeStyle=none;endArrow=none;strokeWidth=3;strokeColor=#C3ADF0;html=1;hachureGap=4;fontFamily=Architects Daughter;fontSource=https%3A%2F%2Ffonts.googleapis.com%2Fcss%3Ffamily%3DArchitects%2BDaughter;fontSize=26;shadow=0;fontColor=#000000;fontStyle=1" edge="1" parent="1" source="6" target="113">
                    <mxGeometry x="234" y="-165" width="100" height="100" as="geometry">
                        <mxPoint x="234" y="-65" as="sourcePoint"/>
                        <mxPoint x="334" y="-165" as="targetPoint"/>
                    </mxGeometry>
                </mxCell>
                <mxCell id="117" value="" style="edgeStyle=none;endArrow=none;strokeWidth=3;strokeColor=#C3ADF0;html=1;hachureGap=4;fontFamily=Architects Daughter;fontSource=https%3A%2F%2Ffonts.googleapis.com%2Fcss%3Ffamily%3DArchitects%2BDaughter;fontSize=26;shadow=0;fontColor=#000000;fontStyle=1" edge="1" parent="1" source="6" target="110">
                    <mxGeometry x="234" y="-165" width="100" height="100" as="geometry">
                        <mxPoint x="234" y="-65" as="sourcePoint"/>
                        <mxPoint x="334" y="-165" as="targetPoint"/>
                    </mxGeometry>
                </mxCell>
                <mxCell id="118" value="" style="edgeStyle=none;endArrow=none;strokeWidth=3;strokeColor=#C3ADF0;html=1;hachureGap=4;fontFamily=Architects Daughter;fontSource=https%3A%2F%2Ffonts.googleapis.com%2Fcss%3Ffamily%3DArchitects%2BDaughter;fontSize=26;shadow=0;fontColor=#000000;fontStyle=1" edge="1" parent="1" source="6" target="114">
                    <mxGeometry x="234" y="-165" width="100" height="100" as="geometry">
                        <mxPoint x="234" y="-65" as="sourcePoint"/>
                        <mxPoint x="334" y="-165" as="targetPoint"/>
                    </mxGeometry>
                </mxCell>
                <mxCell id="119" value="" style="edgeStyle=none;endArrow=none;strokeWidth=3;strokeColor=#C3ADF0;html=1;hachureGap=4;fontFamily=Architects Daughter;fontSource=https%3A%2F%2Ffonts.googleapis.com%2Fcss%3Ffamily%3DArchitects%2BDaughter;fontSize=26;shadow=0;fontColor=#000000;fontStyle=1" edge="1" parent="1" source="6" target="109">
                    <mxGeometry x="234" y="-165" width="100" height="100" as="geometry">
                        <mxPoint x="234" y="-65" as="sourcePoint"/>
                        <mxPoint x="334" y="-165" as="targetPoint"/>
                    </mxGeometry>
                </mxCell>
                <mxCell id="120" value="Zygomycota" style="rounded=1;fillColor=#f5af58;strokeColor=#C3ADF0;strokeWidth=3;shadow=0;html=1;fontColor=#000000;hachureGap=4;fontFamily=Architects Daughter;fontSource=https%3A%2F%2Ffonts.googleapis.com%2Fcss%3Ffamily%3DArchitects%2BDaughter;fontSize=26;fontStyle=1" vertex="1" parent="1">
                    <mxGeometry x="1341.5" y="1212.5" width="120" height="40" as="geometry"/>
                </mxCell>
                <mxCell id="121" value="Script Writing" style="rounded=1;fillColor=#f5af58;strokeColor=#C3ADF0;strokeWidth=3;shadow=0;html=1;fontColor=#000000;hachureGap=4;fontFamily=Architects Daughter;fontSource=https%3A%2F%2Ffonts.googleapis.com%2Fcss%3Ffamily%3DArchitects%2BDaughter;fontSize=26;fontStyle=1" vertex="1" parent="1">
                    <mxGeometry x="1356.5" y="1285" width="120" height="40" as="geometry"/>
                </mxCell>
                <mxCell id="122" value="Ascomycota" style="rounded=1;fillColor=#f5af58;strokeColor=#C3ADF0;strokeWidth=3;shadow=0;html=1;fontColor=#000000;hachureGap=4;fontFamily=Architects Daughter;fontSource=https%3A%2F%2Ffonts.googleapis.com%2Fcss%3Ffamily%3DArchitects%2BDaughter;fontSize=26;fontStyle=1" vertex="1" parent="1">
                    <mxGeometry x="1331.5" y="1350" width="120" height="40" as="geometry"/>
                </mxCell>
                <mxCell id="123" value="Basidiomycota" style="rounded=1;fillColor=#f5af58;strokeColor=#C3ADF0;strokeWidth=3;shadow=0;html=1;fontColor=#000000;hachureGap=4;fontFamily=Architects Daughter;fontSource=https%3A%2F%2Ffonts.googleapis.com%2Fcss%3Ffamily%3DArchitects%2BDaughter;fontSize=26;fontStyle=1" vertex="1" parent="1">
                    <mxGeometry x="1266.5" y="1410" width="120" height="40" as="geometry"/>
                </mxCell>
                <mxCell id="124" value="Mushroom" style="rounded=1;fillColor=#f5af58;strokeColor=#C3ADF0;strokeWidth=3;shadow=0;html=1;fontColor=#000000;hachureGap=4;fontFamily=Architects Daughter;fontSource=https%3A%2F%2Ffonts.googleapis.com%2Fcss%3Ffamily%3DArchitects%2BDaughter;fontSize=26;fontStyle=1" vertex="1" parent="1">
                    <mxGeometry x="1166.5" y="1467.5" width="120" height="40" as="geometry"/>
                </mxCell>
                <mxCell id="125" value="Lichen" style="rounded=1;fillColor=#f5af58;strokeColor=#C3ADF0;strokeWidth=3;shadow=0;html=1;fontColor=#000000;hachureGap=4;fontFamily=Architects Daughter;fontSource=https%3A%2F%2Ffonts.googleapis.com%2Fcss%3Ffamily%3DArchitects%2BDaughter;fontSize=26;fontStyle=1" vertex="1" parent="1">
                    <mxGeometry x="1066.5" y="1410" width="120" height="40" as="geometry"/>
                </mxCell>
                <mxCell id="126" value="Bread Mold" style="rounded=1;fillColor=#f5af58;strokeColor=#C3ADF0;strokeWidth=3;shadow=0;html=1;fontColor=#000000;hachureGap=4;fontFamily=Architects Daughter;fontSource=https%3A%2F%2Ffonts.googleapis.com%2Fcss%3Ffamily%3DArchitects%2BDaughter;fontSize=26;fontStyle=1" vertex="1" parent="1">
                    <mxGeometry x="986.5" y="1350" width="120" height="40" as="geometry"/>
                </mxCell>
                <mxCell id="127" value="Yeast" style="rounded=1;fillColor=#f5af58;strokeColor=#C3ADF0;strokeWidth=3;shadow=0;html=1;fontColor=#000000;hachureGap=4;fontFamily=Architects Daughter;fontSource=https%3A%2F%2Ffonts.googleapis.com%2Fcss%3Ffamily%3DArchitects%2BDaughter;fontSize=26;fontStyle=1" vertex="1" parent="1">
                    <mxGeometry x="946.5" y="1277.5" width="120" height="40" as="geometry"/>
                </mxCell>
                <mxCell id="128" value="Zygospore" style="rounded=1;fillColor=#f5af58;strokeColor=#C3ADF0;strokeWidth=3;shadow=0;html=1;fontColor=#000000;hachureGap=4;fontFamily=Architects Daughter;fontSource=https%3A%2F%2Ffonts.googleapis.com%2Fcss%3Ffamily%3DArchitects%2BDaughter;fontSize=26;fontStyle=1" vertex="1" parent="1">
                    <mxGeometry x="951.5" y="1212.5" width="120" height="40" as="geometry"/>
                </mxCell>
                <mxCell id="129" value="Truffle" style="rounded=1;fillColor=#f5af58;strokeColor=#C3ADF0;strokeWidth=3;shadow=0;html=1;fontColor=#000000;hachureGap=4;fontFamily=Architects Daughter;fontSource=https%3A%2F%2Ffonts.googleapis.com%2Fcss%3Ffamily%3DArchitects%2BDaughter;fontSize=26;fontStyle=1" vertex="1" parent="1">
                    <mxGeometry x="1011.5" y="1147.5" width="120" height="40" as="geometry"/>
                </mxCell>
                <mxCell id="130" value="Chytrid" style="rounded=1;fillColor=#f5af58;strokeColor=#C3ADF0;strokeWidth=3;shadow=0;html=1;fontColor=#000000;hachureGap=4;fontFamily=Architects Daughter;fontSource=https%3A%2F%2Ffonts.googleapis.com%2Fcss%3Ffamily%3DArchitects%2BDaughter;fontSize=26;fontStyle=1" vertex="1" parent="1">
                    <mxGeometry x="1281.5" y="1132.5" width="120" height="40" as="geometry"/>
                </mxCell>
                <mxCell id="131" value="" style="edgeStyle=none;endArrow=none;strokeWidth=3;strokeColor=#C3ADF0;html=1;hachureGap=4;fontFamily=Architects Daughter;fontSource=https%3A%2F%2Ffonts.googleapis.com%2Fcss%3Ffamily%3DArchitects%2BDaughter;fontSize=26;shadow=0;fontColor=#000000;fontStyle=1" edge="1" parent="1" source="7" target="130">
                    <mxGeometry x="226.5" y="-22.5" width="100" height="100" as="geometry">
                        <mxPoint x="226.5" y="77.5" as="sourcePoint"/>
                        <mxPoint x="326.5" y="-22.5" as="targetPoint"/>
                    </mxGeometry>
                </mxCell>
                <mxCell id="132" value="" style="edgeStyle=none;endArrow=none;strokeWidth=3;strokeColor=#C3ADF0;html=1;hachureGap=4;fontFamily=Architects Daughter;fontSource=https%3A%2F%2Ffonts.googleapis.com%2Fcss%3Ffamily%3DArchitects%2BDaughter;fontSize=26;shadow=0;fontColor=#000000;fontStyle=1" edge="1" parent="1" source="7" target="120">
                    <mxGeometry x="226.5" y="-22.5" width="100" height="100" as="geometry">
                        <mxPoint x="226.5" y="77.5" as="sourcePoint"/>
                        <mxPoint x="326.5" y="-22.5" as="targetPoint"/>
                    </mxGeometry>
                </mxCell>
                <mxCell id="133" value="" style="edgeStyle=none;endArrow=none;strokeWidth=3;strokeColor=#C3ADF0;html=1;hachureGap=4;fontFamily=Architects Daughter;fontSource=https%3A%2F%2Ffonts.googleapis.com%2Fcss%3Ffamily%3DArchitects%2BDaughter;fontSize=26;shadow=0;fontColor=#000000;fontStyle=1" edge="1" parent="1" source="7" target="121">
                    <mxGeometry x="226.5" y="-22.5" width="100" height="100" as="geometry">
                        <mxPoint x="226.5" y="77.5" as="sourcePoint"/>
                        <mxPoint x="326.5" y="-22.5" as="targetPoint"/>
                    </mxGeometry>
                </mxCell>
                <mxCell id="134" value="" style="edgeStyle=none;endArrow=none;strokeWidth=3;strokeColor=#C3ADF0;html=1;hachureGap=4;fontFamily=Architects Daughter;fontSource=https%3A%2F%2Ffonts.googleapis.com%2Fcss%3Ffamily%3DArchitects%2BDaughter;fontSize=26;shadow=0;fontColor=#000000;fontStyle=1" edge="1" parent="1" source="7" target="122">
                    <mxGeometry x="226.5" y="-22.5" width="100" height="100" as="geometry">
                        <mxPoint x="226.5" y="77.5" as="sourcePoint"/>
                        <mxPoint x="326.5" y="-22.5" as="targetPoint"/>
                    </mxGeometry>
                </mxCell>
                <mxCell id="135" value="" style="edgeStyle=none;endArrow=none;strokeWidth=3;strokeColor=#C3ADF0;html=1;hachureGap=4;fontFamily=Architects Daughter;fontSource=https%3A%2F%2Ffonts.googleapis.com%2Fcss%3Ffamily%3DArchitects%2BDaughter;fontSize=26;shadow=0;fontColor=#000000;fontStyle=1" edge="1" parent="1" source="7" target="123">
                    <mxGeometry x="226.5" y="-22.5" width="100" height="100" as="geometry">
                        <mxPoint x="226.5" y="77.5" as="sourcePoint"/>
                        <mxPoint x="326.5" y="-22.5" as="targetPoint"/>
                    </mxGeometry>
                </mxCell>
                <mxCell id="136" value="" style="edgeStyle=none;endArrow=none;strokeWidth=3;strokeColor=#C3ADF0;html=1;hachureGap=4;fontFamily=Architects Daughter;fontSource=https%3A%2F%2Ffonts.googleapis.com%2Fcss%3Ffamily%3DArchitects%2BDaughter;fontSize=26;shadow=0;fontColor=#000000;fontStyle=1" edge="1" parent="1" source="7" target="124">
                    <mxGeometry x="226.5" y="-22.5" width="100" height="100" as="geometry">
                        <mxPoint x="226.5" y="77.5" as="sourcePoint"/>
                        <mxPoint x="326.5" y="-22.5" as="targetPoint"/>
                    </mxGeometry>
                </mxCell>
                <mxCell id="137" value="" style="edgeStyle=none;endArrow=none;strokeWidth=3;strokeColor=#C3ADF0;html=1;hachureGap=4;fontFamily=Architects Daughter;fontSource=https%3A%2F%2Ffonts.googleapis.com%2Fcss%3Ffamily%3DArchitects%2BDaughter;fontSize=26;shadow=0;fontColor=#000000;fontStyle=1" edge="1" parent="1" source="7" target="125">
                    <mxGeometry x="226.5" y="-22.5" width="100" height="100" as="geometry">
                        <mxPoint x="226.5" y="77.5" as="sourcePoint"/>
                        <mxPoint x="326.5" y="-22.5" as="targetPoint"/>
                    </mxGeometry>
                </mxCell>
                <mxCell id="138" value="" style="edgeStyle=none;endArrow=none;strokeWidth=3;strokeColor=#C3ADF0;html=1;hachureGap=4;fontFamily=Architects Daughter;fontSource=https%3A%2F%2Ffonts.googleapis.com%2Fcss%3Ffamily%3DArchitects%2BDaughter;fontSize=26;shadow=0;fontColor=#000000;fontStyle=1" edge="1" parent="1" source="7" target="126">
                    <mxGeometry x="226.5" y="-22.5" width="100" height="100" as="geometry">
                        <mxPoint x="226.5" y="77.5" as="sourcePoint"/>
                        <mxPoint x="326.5" y="-22.5" as="targetPoint"/>
                    </mxGeometry>
                </mxCell>
                <mxCell id="139" value="" style="edgeStyle=none;endArrow=none;strokeWidth=3;strokeColor=#C3ADF0;html=1;hachureGap=4;fontFamily=Architects Daughter;fontSource=https%3A%2F%2Ffonts.googleapis.com%2Fcss%3Ffamily%3DArchitects%2BDaughter;fontSize=26;shadow=0;fontColor=#000000;fontStyle=1" edge="1" parent="1" source="7" target="127">
                    <mxGeometry x="226.5" y="-22.5" width="100" height="100" as="geometry">
                        <mxPoint x="226.5" y="77.5" as="sourcePoint"/>
                        <mxPoint x="326.5" y="-22.5" as="targetPoint"/>
                    </mxGeometry>
                </mxCell>
                <mxCell id="140" value="" style="edgeStyle=none;endArrow=none;strokeWidth=3;strokeColor=#C3ADF0;html=1;hachureGap=4;fontFamily=Architects Daughter;fontSource=https%3A%2F%2Ffonts.googleapis.com%2Fcss%3Ffamily%3DArchitects%2BDaughter;fontSize=26;shadow=0;fontColor=#000000;fontStyle=1" edge="1" parent="1" source="7" target="128">
                    <mxGeometry x="226.5" y="-22.5" width="100" height="100" as="geometry">
                        <mxPoint x="226.5" y="77.5" as="sourcePoint"/>
                        <mxPoint x="326.5" y="-22.5" as="targetPoint"/>
                    </mxGeometry>
                </mxCell>
                <mxCell id="141" value="" style="edgeStyle=none;endArrow=none;strokeWidth=3;strokeColor=#C3ADF0;html=1;hachureGap=4;fontFamily=Architects Daughter;fontSource=https%3A%2F%2Ffonts.googleapis.com%2Fcss%3Ffamily%3DArchitects%2BDaughter;fontSize=26;shadow=0;fontColor=#000000;fontStyle=1" edge="1" parent="1" source="7" target="129">
                    <mxGeometry x="226.5" y="-22.5" width="100" height="100" as="geometry">
                        <mxPoint x="226.5" y="77.5" as="sourcePoint"/>
                        <mxPoint x="326.5" y="-22.5" as="targetPoint"/>
                    </mxGeometry>
                </mxCell>
                <mxCell id="142" value="Philadendron" style="rounded=1;fillColor=#f08e81;strokeColor=#C3ADF0;strokeWidth=3;shadow=0;html=1;fontColor=#000000;hachureGap=4;fontFamily=Architects Daughter;fontSource=https%3A%2F%2Ffonts.googleapis.com%2Fcss%3Ffamily%3DArchitects%2BDaughter;fontSize=26;fontStyle=1" vertex="1" parent="1">
                    <mxGeometry x="606.5" y="945" width="120" height="40" as="geometry"/>
                </mxCell>
                <mxCell id="143" value="Dahlia" style="rounded=1;fillColor=#f08e81;strokeColor=#C3ADF0;strokeWidth=3;shadow=0;html=1;fontColor=#000000;hachureGap=4;fontFamily=Architects Daughter;fontSource=https%3A%2F%2Ffonts.googleapis.com%2Fcss%3Ffamily%3DArchitects%2BDaughter;fontSize=26;fontStyle=1" vertex="1" parent="1">
                    <mxGeometry x="471.5" y="950" width="120" height="40" as="geometry"/>
                </mxCell>
                <mxCell id="144" value="Petunia" style="rounded=1;fillColor=#f08e81;strokeColor=#C3ADF0;strokeWidth=3;shadow=0;html=1;fontColor=#000000;hachureGap=4;fontFamily=Architects Daughter;fontSource=https%3A%2F%2Ffonts.googleapis.com%2Fcss%3Ffamily%3DArchitects%2BDaughter;fontSize=26;fontStyle=1" vertex="1" parent="1">
                    <mxGeometry x="406.5" y="1005" width="120" height="40" as="geometry"/>
                </mxCell>
                <mxCell id="145" value="Cactus" style="rounded=1;fillColor=#f08e81;strokeColor=#C3ADF0;strokeWidth=3;shadow=0;html=1;fontColor=#000000;hachureGap=4;fontFamily=Architects Daughter;fontSource=https%3A%2F%2Ffonts.googleapis.com%2Fcss%3Ffamily%3DArchitects%2BDaughter;fontSize=26;fontStyle=1" vertex="1" parent="1">
                    <mxGeometry x="351.5" y="1065" width="120" height="40" as="geometry"/>
                </mxCell>
                <mxCell id="146" value="Tulip" style="rounded=1;fillColor=#f08e81;strokeColor=#C3ADF0;strokeWidth=3;shadow=0;html=1;fontColor=#000000;hachureGap=4;fontFamily=Architects Daughter;fontSource=https%3A%2F%2Ffonts.googleapis.com%2Fcss%3Ffamily%3DArchitects%2BDaughter;fontSize=26;fontStyle=1" vertex="1" parent="1">
                    <mxGeometry x="331.5" y="1120" width="120" height="40" as="geometry"/>
                </mxCell>
                <mxCell id="147" value="Lilac" style="rounded=1;fillColor=#f08e81;strokeColor=#C3ADF0;strokeWidth=3;shadow=0;html=1;fontColor=#000000;hachureGap=4;fontFamily=Architects Daughter;fontSource=https%3A%2F%2Ffonts.googleapis.com%2Fcss%3Ffamily%3DArchitects%2BDaughter;fontSize=26;fontStyle=1" vertex="1" parent="1">
                    <mxGeometry x="346.5" y="1185" width="120" height="40" as="geometry"/>
                </mxCell>
                <mxCell id="148" value="Dandelion" style="rounded=1;fillColor=#f08e81;strokeColor=#C3ADF0;strokeWidth=3;shadow=0;html=1;fontColor=#000000;hachureGap=4;fontFamily=Architects Daughter;fontSource=https%3A%2F%2Ffonts.googleapis.com%2Fcss%3Ffamily%3DArchitects%2BDaughter;fontSize=26;fontStyle=1" vertex="1" parent="1">
                    <mxGeometry x="381.5" y="1247.5" width="120" height="40" as="geometry"/>
                </mxCell>
                <mxCell id="149" value="Poppy" style="rounded=1;fillColor=#f08e81;strokeColor=#C3ADF0;strokeWidth=3;shadow=0;html=1;fontColor=#000000;hachureGap=4;fontFamily=Architects Daughter;fontSource=https%3A%2F%2Ffonts.googleapis.com%2Fcss%3Ffamily%3DArchitects%2BDaughter;fontSize=26;fontStyle=1" vertex="1" parent="1">
                    <mxGeometry x="451.5" y="1297.5" width="120" height="40" as="geometry"/>
                </mxCell>
                <mxCell id="150" value="Gerbera" style="rounded=1;fillColor=#f08e81;strokeColor=#C3ADF0;strokeWidth=3;shadow=0;html=1;fontColor=#000000;hachureGap=4;fontFamily=Architects Daughter;fontSource=https%3A%2F%2Ffonts.googleapis.com%2Fcss%3Ffamily%3DArchitects%2BDaughter;fontSize=26;fontStyle=1" vertex="1" parent="1">
                    <mxGeometry x="561.5" y="1352.5" width="120" height="40" as="geometry"/>
                </mxCell>
                <mxCell id="151" value="Orchid" style="rounded=1;fillColor=#f08e81;strokeColor=#C3ADF0;strokeWidth=3;shadow=0;html=1;fontColor=#000000;hachureGap=4;fontFamily=Architects Daughter;fontSource=https%3A%2F%2Ffonts.googleapis.com%2Fcss%3Ffamily%3DArchitects%2BDaughter;fontSize=26;fontStyle=1" vertex="1" parent="1">
                    <mxGeometry x="686.5" y="1287.5" width="120" height="40" as="geometry"/>
                </mxCell>
                <mxCell id="152" value="Gladiola" style="rounded=1;fillColor=#f08e81;strokeColor=#C3ADF0;strokeWidth=3;shadow=0;html=1;fontColor=#000000;hachureGap=4;fontFamily=Architects Daughter;fontSource=https%3A%2F%2Ffonts.googleapis.com%2Fcss%3Ffamily%3DArchitects%2BDaughter;fontSize=26;fontStyle=1" vertex="1" parent="1">
                    <mxGeometry x="746.5" y="1220" width="120" height="40" as="geometry"/>
                </mxCell>
                <mxCell id="153" value="Rose" style="rounded=1;fillColor=#f08e81;strokeColor=#C3ADF0;strokeWidth=3;shadow=0;html=1;fontColor=#000000;hachureGap=4;fontFamily=Architects Daughter;fontSource=https%3A%2F%2Ffonts.googleapis.com%2Fcss%3Ffamily%3DArchitects%2BDaughter;fontSize=26;fontStyle=1" vertex="1" parent="1">
                    <mxGeometry x="766.5" y="1124.5" width="120" height="40" as="geometry"/>
                </mxCell>
                <mxCell id="154" value="" style="edgeStyle=none;endArrow=none;strokeWidth=3;strokeColor=#C3ADF0;html=1;hachureGap=4;fontFamily=Architects Daughter;fontSource=https%3A%2F%2Ffonts.googleapis.com%2Fcss%3Ffamily%3DArchitects%2BDaughter;fontSize=26;shadow=0;fontColor=#000000;fontStyle=1" edge="1" parent="1" source="8" target="153">
                    <mxGeometry x="171.5" y="-10" width="100" height="100" as="geometry">
                        <mxPoint x="171.5" y="90" as="sourcePoint"/>
                        <mxPoint x="271.5" y="-10" as="targetPoint"/>
                    </mxGeometry>
                </mxCell>
                <mxCell id="155" value="" style="edgeStyle=none;endArrow=none;strokeWidth=3;strokeColor=#C3ADF0;html=1;hachureGap=4;fontFamily=Architects Daughter;fontSource=https%3A%2F%2Ffonts.googleapis.com%2Fcss%3Ffamily%3DArchitects%2BDaughter;fontSize=26;shadow=0;fontColor=#000000;fontStyle=1" edge="1" parent="1" source="8" target="142">
                    <mxGeometry x="171.5" y="-10" width="100" height="100" as="geometry">
                        <mxPoint x="171.5" y="90" as="sourcePoint"/>
                        <mxPoint x="271.5" y="-10" as="targetPoint"/>
                    </mxGeometry>
                </mxCell>
                <mxCell id="156" value="" style="edgeStyle=none;endArrow=none;strokeWidth=3;strokeColor=#C3ADF0;html=1;hachureGap=4;fontFamily=Architects Daughter;fontSource=https%3A%2F%2Ffonts.googleapis.com%2Fcss%3Ffamily%3DArchitects%2BDaughter;fontSize=26;shadow=0;fontColor=#000000;fontStyle=1" edge="1" parent="1" source="8" target="143">
                    <mxGeometry x="171.5" y="-10" width="100" height="100" as="geometry">
                        <mxPoint x="171.5" y="90" as="sourcePoint"/>
                        <mxPoint x="271.5" y="-10" as="targetPoint"/>
                    </mxGeometry>
                </mxCell>
                <mxCell id="157" value="" style="edgeStyle=none;endArrow=none;strokeWidth=3;strokeColor=#C3ADF0;html=1;hachureGap=4;fontFamily=Architects Daughter;fontSource=https%3A%2F%2Ffonts.googleapis.com%2Fcss%3Ffamily%3DArchitects%2BDaughter;fontSize=26;shadow=0;fontColor=#000000;fontStyle=1" edge="1" parent="1" source="8" target="144">
                    <mxGeometry x="171.5" y="-10" width="100" height="100" as="geometry">
                        <mxPoint x="171.5" y="90" as="sourcePoint"/>
                        <mxPoint x="271.5" y="-10" as="targetPoint"/>
                    </mxGeometry>
                </mxCell>
                <mxCell id="158" value="" style="edgeStyle=none;endArrow=none;strokeWidth=3;strokeColor=#C3ADF0;html=1;hachureGap=4;fontFamily=Architects Daughter;fontSource=https%3A%2F%2Ffonts.googleapis.com%2Fcss%3Ffamily%3DArchitects%2BDaughter;fontSize=26;shadow=0;fontColor=#000000;fontStyle=1" edge="1" parent="1" source="8" target="145">
                    <mxGeometry x="171.5" y="-10" width="100" height="100" as="geometry">
                        <mxPoint x="171.5" y="90" as="sourcePoint"/>
                        <mxPoint x="271.5" y="-10" as="targetPoint"/>
                    </mxGeometry>
                </mxCell>
                <mxCell id="159" value="" style="edgeStyle=none;endArrow=none;strokeWidth=3;strokeColor=#C3ADF0;html=1;hachureGap=4;fontFamily=Architects Daughter;fontSource=https%3A%2F%2Ffonts.googleapis.com%2Fcss%3Ffamily%3DArchitects%2BDaughter;fontSize=26;shadow=0;fontColor=#000000;fontStyle=1" edge="1" parent="1" source="8" target="146">
                    <mxGeometry x="171.5" y="-10" width="100" height="100" as="geometry">
                        <mxPoint x="171.5" y="90" as="sourcePoint"/>
                        <mxPoint x="271.5" y="-10" as="targetPoint"/>
                    </mxGeometry>
                </mxCell>
                <mxCell id="160" value="" style="edgeStyle=none;endArrow=none;strokeWidth=3;strokeColor=#C3ADF0;html=1;hachureGap=4;fontFamily=Architects Daughter;fontSource=https%3A%2F%2Ffonts.googleapis.com%2Fcss%3Ffamily%3DArchitects%2BDaughter;fontSize=26;shadow=0;fontColor=#000000;fontStyle=1" edge="1" parent="1" source="8" target="147">
                    <mxGeometry x="171.5" y="-10" width="100" height="100" as="geometry">
                        <mxPoint x="171.5" y="90" as="sourcePoint"/>
                        <mxPoint x="271.5" y="-10" as="targetPoint"/>
                    </mxGeometry>
                </mxCell>
                <mxCell id="161" value="" style="edgeStyle=none;endArrow=none;strokeWidth=3;strokeColor=#C3ADF0;html=1;hachureGap=4;fontFamily=Architects Daughter;fontSource=https%3A%2F%2Ffonts.googleapis.com%2Fcss%3Ffamily%3DArchitects%2BDaughter;fontSize=26;shadow=0;fontColor=#000000;fontStyle=1" edge="1" parent="1" source="8" target="148">
                    <mxGeometry x="171.5" y="-10" width="100" height="100" as="geometry">
                        <mxPoint x="171.5" y="90" as="sourcePoint"/>
                        <mxPoint x="271.5" y="-10" as="targetPoint"/>
                    </mxGeometry>
                </mxCell>
                <mxCell id="162" value="" style="edgeStyle=none;endArrow=none;strokeWidth=3;strokeColor=#C3ADF0;html=1;hachureGap=4;fontFamily=Architects Daughter;fontSource=https%3A%2F%2Ffonts.googleapis.com%2Fcss%3Ffamily%3DArchitects%2BDaughter;fontSize=26;shadow=0;fontColor=#000000;fontStyle=1" edge="1" parent="1" source="8" target="149">
                    <mxGeometry x="171.5" y="-10" width="100" height="100" as="geometry">
                        <mxPoint x="171.5" y="90" as="sourcePoint"/>
                        <mxPoint x="271.5" y="-10" as="targetPoint"/>
                    </mxGeometry>
                </mxCell>
                <mxCell id="163" value="" style="edgeStyle=none;endArrow=none;strokeWidth=3;strokeColor=#C3ADF0;html=1;hachureGap=4;fontFamily=Architects Daughter;fontSource=https%3A%2F%2Ffonts.googleapis.com%2Fcss%3Ffamily%3DArchitects%2BDaughter;fontSize=26;shadow=0;fontColor=#000000;fontStyle=1" edge="1" parent="1" source="8" target="150">
                    <mxGeometry x="171.5" y="-10" width="100" height="100" as="geometry">
                        <mxPoint x="171.5" y="90" as="sourcePoint"/>
                        <mxPoint x="271.5" y="-10" as="targetPoint"/>
                    </mxGeometry>
                </mxCell>
                <mxCell id="164" value="" style="edgeStyle=none;endArrow=none;strokeWidth=3;strokeColor=#C3ADF0;html=1;hachureGap=4;fontFamily=Architects Daughter;fontSource=https%3A%2F%2Ffonts.googleapis.com%2Fcss%3Ffamily%3DArchitects%2BDaughter;fontSize=26;shadow=0;fontColor=#000000;fontStyle=1" edge="1" parent="1" source="8" target="151">
                    <mxGeometry x="171.5" y="-10" width="100" height="100" as="geometry">
                        <mxPoint x="171.5" y="90" as="sourcePoint"/>
                        <mxPoint x="271.5" y="-10" as="targetPoint"/>
                    </mxGeometry>
                </mxCell>
                <mxCell id="165" value="" style="edgeStyle=none;endArrow=none;strokeWidth=3;strokeColor=#C3ADF0;html=1;hachureGap=4;fontFamily=Architects Daughter;fontSource=https%3A%2F%2Ffonts.googleapis.com%2Fcss%3Ffamily%3DArchitects%2BDaughter;fontSize=26;shadow=0;fontColor=#000000;fontStyle=1" edge="1" parent="1" source="8" target="152">
                    <mxGeometry x="171.5" y="-10" width="100" height="100" as="geometry">
                        <mxPoint x="171.5" y="90" as="sourcePoint"/>
                        <mxPoint x="271.5" y="-10" as="targetPoint"/>
                    </mxGeometry>
                </mxCell>
                <mxCell id="166" style="edgeStyle=orthogonalEdgeStyle;rounded=0;html=1;exitX=0.75;exitY=0;entryX=0.75;entryY=0;startArrow=none;startFill=0;endArrow=block;endFill=1;jettySize=auto;orthogonalLoop=1;strokeColor=#C3ADF0;strokeWidth=6;fontSize=26;fontColor=#000000;hachureGap=4;fontFamily=Architects Daughter;fontSource=https%3A%2F%2Ffonts.googleapis.com%2Fcss%3Ffamily%3DArchitects%2BDaughter;shadow=0;fontStyle=1" edge="1" parent="1" source="66" target="66">
                    <mxGeometry relative="1" as="geometry"/>
                </mxCell>
                <mxCell id="167" value="&lt;span style=&quot;font-size: 45px;&quot;&gt;Django server&lt;/span&gt;" style="ellipse;whiteSpace=wrap;html=1;shadow=0;fontFamily=Helvetica;fontSize=26;fontColor=#000000;align=center;strokeColor=#C3ADF0;strokeWidth=6;fillColor=#FFFFFF;fontStyle=1;gradientColor=none;hachureGap=4;fontSource=https%3A%2F%2Ffonts.googleapis.com%2Fcss%3Ffamily%3DArchitects%2BDaughter;" vertex="1" parent="1">
                    <mxGeometry x="944" y="615" width="270" height="270" as="geometry"/>
                </mxCell>
                <mxCell id="168" value="Tree" style="ellipse;whiteSpace=wrap;html=1;shadow=0;fontFamily=Helvetica;fontSize=26;fontColor=#000000;align=center;strokeWidth=3;fillColor=#736ca8;strokeColor=#C3ADF0;hachureGap=4;fontSource=https%3A%2F%2Ffonts.googleapis.com%2Fcss%3Ffamily%3DArchitects%2BDaughter;fontStyle=1" vertex="1" parent="1">
                    <mxGeometry x="295" y="660" width="120" height="120" as="geometry"/>
                </mxCell>
                <mxCell id="169" value="Organisation" style="rounded=1;fillColor=#a29dc5;strokeColor=#C3ADF0;strokeWidth=3;shadow=0;html=1;fontColor=#000000;hachureGap=4;fontFamily=Architects Daughter;fontSource=https%3A%2F%2Ffonts.googleapis.com%2Fcss%3Ffamily%3DArchitects%2BDaughter;fontSize=26;fontStyle=1" vertex="1" parent="1">
                    <mxGeometry x="185" y="560" width="120" height="40" as="geometry"/>
                </mxCell>
                <mxCell id="170" value="Oak" style="rounded=1;fillColor=#a29dc5;strokeColor=#C3ADF0;strokeWidth=3;shadow=0;html=1;fontColor=#000000;hachureGap=4;fontFamily=Architects Daughter;fontSource=https%3A%2F%2Ffonts.googleapis.com%2Fcss%3Ffamily%3DArchitects%2BDaughter;fontSize=26;fontStyle=1" vertex="1" parent="1">
                    <mxGeometry x="292.5" y="500" width="120" height="40" as="geometry"/>
                </mxCell>
                <mxCell id="171" value="Birch" style="rounded=1;fillColor=#a29dc5;strokeColor=#C3ADF0;strokeWidth=3;shadow=0;html=1;fontColor=#000000;hachureGap=4;fontFamily=Architects Daughter;fontSource=https%3A%2F%2Ffonts.googleapis.com%2Fcss%3Ffamily%3DArchitects%2BDaughter;fontSize=26;fontStyle=1" vertex="1" parent="1">
                    <mxGeometry x="432.5" y="510" width="120" height="40" as="geometry"/>
                </mxCell>
                <mxCell id="172" value="Silverfern" style="rounded=1;fillColor=#a29dc5;strokeColor=#C3ADF0;strokeWidth=3;shadow=0;html=1;fontColor=#000000;hachureGap=4;fontFamily=Architects Daughter;fontSource=https%3A%2F%2Ffonts.googleapis.com%2Fcss%3Ffamily%3DArchitects%2BDaughter;fontSize=26;fontStyle=1" vertex="1" parent="1">
                    <mxGeometry x="497.5" y="580" width="120" height="40" as="geometry"/>
                </mxCell>
                <mxCell id="173" value="Personal &#10;Development" style="rounded=1;fillColor=#a29dc5;strokeColor=#C3ADF0;strokeWidth=3;shadow=0;html=1;fontColor=#000000;hachureGap=4;fontFamily=Architects Daughter;fontSource=https%3A%2F%2Ffonts.googleapis.com%2Fcss%3Ffamily%3DArchitects%2BDaughter;fontSize=26;fontStyle=1" vertex="1" parent="1">
                    <mxGeometry x="522.5" y="660" width="120" height="40" as="geometry"/>
                </mxCell>
                <mxCell id="174" value="Pine" style="rounded=1;fillColor=#a29dc5;strokeColor=#C3ADF0;strokeWidth=3;shadow=0;html=1;fontColor=#000000;hachureGap=4;fontFamily=Architects Daughter;fontSource=https%3A%2F%2Ffonts.googleapis.com%2Fcss%3Ffamily%3DArchitects%2BDaughter;fontSize=26;fontStyle=1" vertex="1" parent="1">
                    <mxGeometry x="50" y="580" width="120" height="40" as="geometry"/>
                </mxCell>
                <mxCell id="175" value="Lime" style="rounded=1;fillColor=#a29dc5;strokeColor=#C3ADF0;strokeWidth=3;shadow=0;html=1;fontColor=#000000;hachureGap=4;fontFamily=Architects Daughter;fontSource=https%3A%2F%2Ffonts.googleapis.com%2Fcss%3Ffamily%3DArchitects%2BDaughter;fontSize=26;fontStyle=1" vertex="1" parent="1">
                    <mxGeometry x="455" y="770" width="120" height="40" as="geometry"/>
                </mxCell>
                <mxCell id="176" value="Chestnut" style="rounded=1;fillColor=#a29dc5;strokeColor=#C3ADF0;strokeWidth=3;shadow=0;html=1;fontColor=#000000;hachureGap=4;fontFamily=Architects Daughter;fontSource=https%3A%2F%2Ffonts.googleapis.com%2Fcss%3Ffamily%3DArchitects%2BDaughter;fontSize=26;fontStyle=1" vertex="1" parent="1">
                    <mxGeometry x="405" y="830" width="120" height="40" as="geometry"/>
                </mxCell>
                <mxCell id="177" value="Beech" style="rounded=1;fillColor=#a29dc5;strokeColor=#C3ADF0;strokeWidth=3;shadow=0;html=1;fontColor=#000000;hachureGap=4;fontFamily=Architects Daughter;fontSource=https%3A%2F%2Ffonts.googleapis.com%2Fcss%3Ffamily%3DArchitects%2BDaughter;fontSize=26;fontStyle=1" vertex="1" parent="1">
                    <mxGeometry x="265" y="830" width="120" height="40" as="geometry"/>
                </mxCell>
                <mxCell id="178" value="Poplar" style="rounded=1;fillColor=#a29dc5;strokeColor=#C3ADF0;strokeWidth=3;shadow=0;html=1;fontColor=#000000;hachureGap=4;fontFamily=Architects Daughter;fontSource=https%3A%2F%2Ffonts.googleapis.com%2Fcss%3Ffamily%3DArchitects%2BDaughter;fontSize=26;fontStyle=1" vertex="1" parent="1">
                    <mxGeometry x="125" y="795" width="120" height="40" as="geometry"/>
                </mxCell>
                <mxCell id="179" value="Willow" style="rounded=1;fillColor=#a29dc5;strokeColor=#C3ADF0;strokeWidth=3;shadow=0;html=1;fontColor=#000000;hachureGap=4;fontFamily=Architects Daughter;fontSource=https%3A%2F%2Ffonts.googleapis.com%2Fcss%3Ffamily%3DArchitects%2BDaughter;fontSize=26;fontStyle=1" vertex="1" parent="1">
                    <mxGeometry x="20" y="740" width="120" height="40" as="geometry"/>
                </mxCell>
                <mxCell id="180" value="" style="edgeStyle=none;endArrow=none;strokeWidth=3;strokeColor=#C3ADF0;html=1;hachureGap=4;fontFamily=Architects Daughter;fontSource=https%3A%2F%2Ffonts.googleapis.com%2Fcss%3Ffamily%3DArchitects%2BDaughter;fontSize=26;shadow=0;fontColor=#000000;fontStyle=1" edge="1" parent="1" source="168" target="169">
                    <mxGeometry x="-1515" y="-365" width="100" height="100" as="geometry">
                        <mxPoint x="-1515" y="-265" as="sourcePoint"/>
                        <mxPoint x="-1415" y="-365" as="targetPoint"/>
                    </mxGeometry>
                </mxCell>
                <mxCell id="181" value="Acacia" style="rounded=1;fillColor=#a29dc5;strokeColor=#C3ADF0;strokeWidth=3;shadow=0;html=1;fontColor=#000000;hachureGap=4;fontFamily=Architects Daughter;fontSource=https%3A%2F%2Ffonts.googleapis.com%2Fcss%3Ffamily%3DArchitects%2BDaughter;fontSize=26;fontStyle=1" vertex="1" parent="1">
                    <mxGeometry x="60" y="670" width="120" height="40" as="geometry"/>
                </mxCell>
                <mxCell id="182" value="" style="edgeStyle=none;endArrow=none;strokeWidth=3;strokeColor=#C3ADF0;html=1;hachureGap=4;fontFamily=Architects Daughter;fontSource=https%3A%2F%2Ffonts.googleapis.com%2Fcss%3Ffamily%3DArchitects%2BDaughter;fontSize=26;shadow=0;fontColor=#000000;fontStyle=1" edge="1" parent="1" source="168" target="170">
                    <mxGeometry x="-1515" y="-365" width="100" height="100" as="geometry">
                        <mxPoint x="-1515" y="-265" as="sourcePoint"/>
                        <mxPoint x="-1415" y="-365" as="targetPoint"/>
                    </mxGeometry>
                </mxCell>
                <mxCell id="183" value="" style="edgeStyle=none;endArrow=none;strokeWidth=3;strokeColor=#C3ADF0;html=1;hachureGap=4;fontFamily=Architects Daughter;fontSource=https%3A%2F%2Ffonts.googleapis.com%2Fcss%3Ffamily%3DArchitects%2BDaughter;fontSize=26;shadow=0;fontColor=#000000;fontStyle=1" edge="1" parent="1" source="168" target="171">
                    <mxGeometry x="-1515" y="-365" width="100" height="100" as="geometry">
                        <mxPoint x="-1515" y="-265" as="sourcePoint"/>
                        <mxPoint x="-1415" y="-365" as="targetPoint"/>
                    </mxGeometry>
                </mxCell>
                <mxCell id="184" value="" style="edgeStyle=none;endArrow=none;strokeWidth=3;strokeColor=#C3ADF0;html=1;hachureGap=4;fontFamily=Architects Daughter;fontSource=https%3A%2F%2Ffonts.googleapis.com%2Fcss%3Ffamily%3DArchitects%2BDaughter;fontSize=26;shadow=0;fontColor=#000000;fontStyle=1" edge="1" parent="1" source="168" target="172">
                    <mxGeometry x="-1515" y="-365" width="100" height="100" as="geometry">
                        <mxPoint x="-1515" y="-265" as="sourcePoint"/>
                        <mxPoint x="-1415" y="-365" as="targetPoint"/>
                    </mxGeometry>
                </mxCell>
                <mxCell id="185" value="" style="edgeStyle=none;endArrow=none;strokeWidth=3;strokeColor=#C3ADF0;html=1;hachureGap=4;fontFamily=Architects Daughter;fontSource=https%3A%2F%2Ffonts.googleapis.com%2Fcss%3Ffamily%3DArchitects%2BDaughter;fontSize=26;shadow=0;fontColor=#000000;fontStyle=1" edge="1" parent="1" source="168" target="173">
                    <mxGeometry x="-1515" y="-365" width="100" height="100" as="geometry">
                        <mxPoint x="-1515" y="-265" as="sourcePoint"/>
                        <mxPoint x="-1415" y="-365" as="targetPoint"/>
                    </mxGeometry>
                </mxCell>
                <mxCell id="186" value="" style="edgeStyle=none;endArrow=none;strokeWidth=3;strokeColor=#C3ADF0;html=1;hachureGap=4;fontFamily=Architects Daughter;fontSource=https%3A%2F%2Ffonts.googleapis.com%2Fcss%3Ffamily%3DArchitects%2BDaughter;fontSize=26;shadow=0;fontColor=#000000;fontStyle=1" edge="1" parent="1" source="168" target="174">
                    <mxGeometry x="-1515" y="-365" width="100" height="100" as="geometry">
                        <mxPoint x="-1515" y="-265" as="sourcePoint"/>
                        <mxPoint x="-1415" y="-365" as="targetPoint"/>
                    </mxGeometry>
                </mxCell>
                <mxCell id="187" value="" style="edgeStyle=none;endArrow=none;strokeWidth=3;strokeColor=#C3ADF0;html=1;hachureGap=4;fontFamily=Architects Daughter;fontSource=https%3A%2F%2Ffonts.googleapis.com%2Fcss%3Ffamily%3DArchitects%2BDaughter;fontSize=26;shadow=0;fontColor=#000000;fontStyle=1" edge="1" parent="1" source="168" target="175">
                    <mxGeometry x="-1515" y="-365" width="100" height="100" as="geometry">
                        <mxPoint x="-1515" y="-265" as="sourcePoint"/>
                        <mxPoint x="-1415" y="-365" as="targetPoint"/>
                    </mxGeometry>
                </mxCell>
                <mxCell id="188" value="" style="edgeStyle=none;endArrow=none;strokeWidth=3;strokeColor=#C3ADF0;html=1;hachureGap=4;fontFamily=Architects Daughter;fontSource=https%3A%2F%2Ffonts.googleapis.com%2Fcss%3Ffamily%3DArchitects%2BDaughter;fontSize=26;shadow=0;fontColor=#000000;fontStyle=1" edge="1" parent="1" source="168" target="176">
                    <mxGeometry x="-1515" y="-365" width="100" height="100" as="geometry">
                        <mxPoint x="-1515" y="-265" as="sourcePoint"/>
                        <mxPoint x="-1415" y="-365" as="targetPoint"/>
                    </mxGeometry>
                </mxCell>
                <mxCell id="189" value="" style="edgeStyle=none;endArrow=none;strokeWidth=3;strokeColor=#C3ADF0;html=1;hachureGap=4;fontFamily=Architects Daughter;fontSource=https%3A%2F%2Ffonts.googleapis.com%2Fcss%3Ffamily%3DArchitects%2BDaughter;fontSize=26;shadow=0;fontColor=#000000;fontStyle=1" edge="1" parent="1" source="168" target="177">
                    <mxGeometry x="-1515" y="-365" width="100" height="100" as="geometry">
                        <mxPoint x="-1515" y="-265" as="sourcePoint"/>
                        <mxPoint x="-1415" y="-365" as="targetPoint"/>
                    </mxGeometry>
                </mxCell>
                <mxCell id="190" value="" style="edgeStyle=none;endArrow=none;strokeWidth=3;strokeColor=#C3ADF0;html=1;hachureGap=4;fontFamily=Architects Daughter;fontSource=https%3A%2F%2Ffonts.googleapis.com%2Fcss%3Ffamily%3DArchitects%2BDaughter;fontSize=26;shadow=0;fontColor=#000000;fontStyle=1" edge="1" parent="1" source="168" target="178">
                    <mxGeometry x="-1515" y="-365" width="100" height="100" as="geometry">
                        <mxPoint x="-1515" y="-265" as="sourcePoint"/>
                        <mxPoint x="-1415" y="-365" as="targetPoint"/>
                    </mxGeometry>
                </mxCell>
                <mxCell id="191" value="" style="edgeStyle=none;endArrow=none;strokeWidth=3;strokeColor=#C3ADF0;html=1;hachureGap=4;fontFamily=Architects Daughter;fontSource=https%3A%2F%2Ffonts.googleapis.com%2Fcss%3Ffamily%3DArchitects%2BDaughter;fontSize=26;shadow=0;fontColor=#000000;fontStyle=1" edge="1" parent="1" source="168" target="179">
                    <mxGeometry x="-1515" y="-365" width="100" height="100" as="geometry">
                        <mxPoint x="-1515" y="-265" as="sourcePoint"/>
                        <mxPoint x="-1415" y="-365" as="targetPoint"/>
                    </mxGeometry>
                </mxCell>
                <mxCell id="192" value="" style="edgeStyle=none;endArrow=none;strokeWidth=3;strokeColor=#C3ADF0;html=1;hachureGap=4;fontFamily=Architects Daughter;fontSource=https%3A%2F%2Ffonts.googleapis.com%2Fcss%3Ffamily%3DArchitects%2BDaughter;fontSize=26;shadow=0;fontColor=#000000;fontStyle=1" edge="1" parent="1" source="168" target="181">
                    <mxGeometry x="-1515" y="-365" width="100" height="100" as="geometry">
                        <mxPoint x="-1515" y="-265" as="sourcePoint"/>
                        <mxPoint x="-1415" y="-365" as="targetPoint"/>
                    </mxGeometry>
                </mxCell>
                <mxCell id="193" value="" style="edgeStyle=none;endArrow=none;strokeWidth=3;strokeColor=#C3ADF0;html=1;hachureGap=4;fontFamily=Architects Daughter;fontSource=https%3A%2F%2Ffonts.googleapis.com%2Fcss%3Ffamily%3DArchitects%2BDaughter;fontSize=26;shadow=0;fontColor=#000000;fontStyle=1" edge="1" parent="1" source="6" target="111">
                    <mxGeometry x="-1191" y="-470" width="100" height="100" as="geometry">
                        <mxPoint x="-1191" y="-370" as="sourcePoint"/>
                        <mxPoint x="-1091" y="-470" as="targetPoint"/>
                    </mxGeometry>
                </mxCell>
                <mxCell id="194" style="edgeStyle=none;rounded=0;html=1;exitX=0.5;exitY=1;endArrow=none;endFill=0;jettySize=auto;orthogonalLoop=1;strokeColor=#C3ADF0;strokeWidth=2;fillColor=#64bbe2;fontSize=26;fontColor=#000000;hachureGap=4;fontFamily=Architects Daughter;fontSource=https%3A%2F%2Ffonts.googleapis.com%2Fcss%3Ffamily%3DArchitects%2BDaughter;shadow=0;fontStyle=1" edge="1" parent="1" source="181" target="181">
                    <mxGeometry relative="1" as="geometry"/>
                </mxCell>
            </root>
        </mxGraphModel>
    </diagram>
</mxfile>